<?xml version="1.0" encoding="utf-8"?>
<!-- Generator: Adobe Illustrator 16.0.0, SVG Export Plug-In . SVG Version: 6.00 Build 0)  -->
<!DOCTYPE svg PUBLIC "-//W3C//DTD SVG 1.1//EN" "http://www.w3.org/Graphics/SVG/1.1/DTD/svg11.dtd">
<svg version="1.1" xmlns="http://www.w3.org/2000/svg" xmlns:xlink="http://www.w3.org/1999/xlink" x="0px" y="0px" width="312px"
	 height="310.667px" viewBox="691.333 15.667 312 310.667" enable-background="new 691.333 15.667 312 310.667"
	 xml:space="preserve">
<g id="svg2" sodipodi:docname="Blank_US_Map.svg" inkscape:version="0.48.0 r9654" inkscape:output_extension="org.inkscape.output.svg.inkscape" sodipodi:version="0.32" xmlns:sodipodi="http://sodipodi.sourceforge.net/DTD/sodipodi-0.dtd" xmlns:cc="http://creativecommons.org/ns#" xmlns:osb="http://www.openswatchbook.org/uri/2009/osb" xmlns:rdf="http://www.w3.org/1999/02/22-rdf-syntax-ns#" xmlns:dc="http://purl.org/dc/elements/1.1/" xmlns:svg="http://www.w3.org/2000/svg" xmlns:inkscape="http://www.inkscape.org/namespaces/inkscape">
	<defs>
		
		
			<inkscape:perspective  inkscape:persp3d-origin="479.5 : 197.66667 : 1" id="perspective64" inkscape:vp_z="959 : 296.5 : 1" inkscape:vp_y="0 : 1000 : 0" inkscape:vp_x="0 : 296.5 : 1" sodipodi:type="inkscape:persp3d">
			</inkscape:perspective>
	</defs>
	
		<sodipodi:namedview  id="base" showguides="true" borderopacity="1.0" inkscape:zoom="1" gridtolerance="10.0" objecttolerance="10.0" bordercolor="#666666" inkscape:cx="648.78849" inkscape:cy="296.45466" showgrid="false" pagecolor="#ffffff" guidetolerance="10.0" inkscape:window-x="0" inkscape:pageopacity="0.0" inkscape:guide-bbox="true" inkscape:window-width="1280" inkscape:window-y="25" inkscape:pageshadow="2" inkscape:window-maximized="1" inkscape:current-layer="svg2" inkscape:window-height="949">
		</sodipodi:namedview>
	<g>
		<defs>
			<circle id="SVGID_1_" cx="846.907" cy="170.854" r="152.077"/>
		</defs>
		<clipPath id="SVGID_2_">
			<use xlink:href="#SVGID_1_"  overflow="visible"/>
		</clipPath>
		<circle clip-path="url(#SVGID_2_)" fill="#FFFFFF" cx="846.907" cy="170.854" r="152.077"/>
		<g clip-path="url(#SVGID_2_)">
			<path id="HI" fill="#D3D3D3" stroke="#FFFFFF" stroke-width="0.75" d="M233.087,519.31l1.94-3.557l2.263-0.323l0.324,0.809
				l-2.102,3.071H233.087z M243.272,515.591l6.144,2.587l2.102-0.323l1.616-3.88l-0.646-3.395l-4.203-0.485l-4.042,1.778
				L243.272,515.591z M273.988,525.614l3.718,5.496l2.425-0.323l1.132-0.484l1.455,1.293l3.718-0.162l0.97-1.454l-2.91-1.778
				l-1.94-3.719l-2.102-3.557l-5.82,2.91L273.988,525.614z M294.195,534.506l1.293-1.94l4.688,0.97l0.647-0.484l6.143,0.646
				l-0.323,1.293l-2.587,1.455l-4.365-0.323L294.195,534.506z M299.53,539.679l1.94,3.88l3.072-1.132l0.323-1.616l-1.617-2.102
				l-3.718-0.323V539.679z M306.481,538.547l2.264-2.909l4.688,2.425l4.364,1.131l4.365,2.749v1.939l-3.557,1.778l-4.85,0.97
				l-2.425-1.454L306.481,538.547z M323.133,554.066l1.616-1.293l3.396,1.616l7.598,3.557l3.396,2.102l1.616,2.425l1.939,4.365
				l4.042,2.587l-0.323,1.293l-3.88,3.233l-4.203,1.455l-1.455-0.646l-3.071,1.777l-2.425,3.233l-2.264,2.91l-1.778-0.162
				l-3.557-2.586l-0.323-4.526l0.646-2.425l-1.616-5.658l-2.102-1.778l-0.162-2.587l2.264-0.97l2.102-3.072l0.484-0.97l-1.616-1.778
				L323.133,554.066z"/>
			<path id="AK" fill="#D3D3D3" stroke="#FFFFFF" stroke-width="0.75" d="M158.077,453.675l-0.323,85.357l1.617,0.97l3.071,0.162
				l1.455-1.132h2.586l0.162,2.91l6.952,6.789l0.485,2.587l3.395-1.939l0.646-0.162l0.323-3.071l1.455-1.617l1.132-0.161l1.94-1.455
				l3.071,2.102l0.647,2.91l1.94,1.131l1.131,2.426l3.88,1.777l3.395,5.982l2.748,3.88l2.263,2.748l1.455,3.718l5.012,1.778
				l5.173,2.102l0.97,4.365l0.485,3.071l-0.97,3.395l-1.778,2.264l-1.617-0.809l-1.455-3.071l-2.748-1.455l-1.778-1.132
				l-0.809,0.809l1.455,2.748l0.162,3.719l-1.131,0.484l-1.94-1.939l-2.102-1.293l0.485,1.616l1.293,1.778l-0.808,0.809
				c0,0-0.808-0.324-1.293-0.971c-0.485-0.646-2.102-3.395-2.102-3.395l-0.97-2.264c0,0-0.323,1.294-0.97,0.971
				c-0.646-0.323-1.293-1.455-1.293-1.455l1.778-1.94l-1.455-1.455v-5.011h-0.808l-0.809,3.395l-1.132,0.485l-0.97-3.719
				l-0.646-3.718l-0.809-0.485l0.323,5.658v1.132l-1.455-1.293l-3.557-5.982l-2.102-0.484l-0.647-3.719l-1.616-2.909l-1.617-1.132
				v-2.264l2.102-1.293l-0.485-0.323l-2.587,0.646l-3.395-2.425l-2.587-2.91l-4.85-2.586l-4.042-2.587l1.293-3.233v-1.616
				l-1.778,1.616l-2.91,1.132l-3.718-1.132l-5.658-2.425h-5.496l-0.647,0.485l-6.466-3.88l-2.102-0.323l-2.749-5.82l-3.556,0.323
				l-3.557,1.455l0.485,4.526l1.132-2.91l0.97,0.324l-1.455,4.364l3.233-2.748l0.646,1.616l-3.88,4.365l-1.293-0.323l-0.485-1.94
				l-1.293-0.808l-1.293,1.131l-2.748-1.778l-3.072,2.102l-1.778,2.102l-3.395,2.103l-4.688-0.162l-0.485-2.102l3.718-0.646v-1.294
				l-2.263-0.646l0.97-2.425l2.263-3.88v-1.778l0.162-0.808l4.365-2.264l0.97,1.293h2.749l-1.293-2.586l-3.718-0.323l-5.012,2.748
				l-2.425,3.395l-1.778,2.587l-1.131,2.263l-4.203,1.455l-3.072,2.587l-0.323,1.616l2.263,0.971l0.808,2.102l-2.748,3.232
				l-6.466,4.204l-7.76,4.203l-2.102,1.131l-5.335,1.132l-5.335,2.264l1.778,1.293l-1.455,1.455l-0.485,1.132l-2.748-0.971
				l-3.233,0.162l-0.808,2.264h-0.97l0.323-2.426l-3.556,1.294l-2.91,0.97l-3.395-1.293l-2.91,1.939h-3.233l-2.102,1.293
				l-1.617,0.809l-2.102-0.323l-2.586-1.132l-2.263,0.646l-0.97,0.971l-1.616-1.132v-1.94l3.071-1.293l6.305,0.646l4.365-1.616
				l2.102-2.102l2.91-0.646l1.778-0.809l2.748,0.162l1.617,1.293l0.97-0.323l2.263-2.748l3.071-0.971l3.395-0.646l1.293-0.323
				l0.646,0.485h0.809l1.293-3.719l4.042-1.455l1.94-3.718l2.263-4.526l1.617-1.455l0.323-2.587l-1.616,1.294l-3.395,0.646
				l-0.646-2.425l-1.293-0.323l-0.97,0.97l-0.162,2.91l-1.455-0.162l-1.455-5.819l-1.293,1.293l-1.131-0.485l-0.324-1.939
				l-4.042,0.161l-2.102,1.132l-2.586-0.323l1.455-1.455l0.485-2.586l-0.646-1.94l1.455-0.97l1.293-0.162l-0.646-1.778V526.1
				l-0.97-0.971l-0.808,1.455h-6.143l-1.455-1.293l-0.646-3.88l-2.102-3.557v-0.97l2.102-0.809l0.162-2.102l1.131-1.132
				l-0.808-0.484l-1.293,0.484l-1.131-2.748l0.97-5.012l4.526-3.233l2.587-1.616l1.94-3.718l2.748-1.294l2.586,1.132l0.324,2.425
				l2.425-0.323l3.233-2.425l1.617,0.646l0.97,0.646h1.617l2.263-1.293l0.808-4.365c0,0,0.323-2.909,0.97-3.395
				c0.646-0.485,0.97-0.97,0.97-0.97l-1.131-1.94l-2.587,0.809l-3.233,0.809l-1.94-0.485l-3.557-1.778l-5.012-0.161l-3.557-3.719
				l0.485-3.88l0.646-2.425l-2.102-1.778l-1.94-3.718l0.485-0.809l6.79-0.485H66.9l0.97,0.971h0.647l-0.162-1.617l3.88-0.646
				l2.587,0.323l1.455,1.132l-1.455,2.102l-0.485,1.455l2.748,1.616l5.011,1.778l1.778-0.97l-2.263-4.365l-0.97-3.233l0.97-0.808
				l-3.395-1.94l-0.485-1.132l0.485-1.616l-0.808-3.88l-2.91-4.688l-2.425-4.203l2.91-1.939h3.233l1.778,0.646l4.204-0.162
				l3.718-3.556l1.132-3.072l3.718-2.425l1.617,0.97l2.748-0.646l3.718-2.102l1.132-0.161l0.97,0.808l4.526-0.161l2.749-3.071h1.131
				l3.557,2.425l1.94,2.102l-0.485,1.131l0.646,1.132l1.617-1.616l3.88,0.323l0.323,3.718l1.94,1.455l7.113,0.646l6.305,4.203
				l1.455-0.97l5.173,2.587l2.102-0.646l1.94-0.809l4.85,1.939L158.077,453.675z M42.974,482.612l2.102,5.335l-0.162,0.97
				l-2.91-0.323l-1.778-4.041l-1.778-1.455h-2.425l-0.162-2.587l1.778-2.425l1.131,2.425l1.455,1.455L42.974,482.612z
				 M40.387,516.076l3.718,0.809l3.718,0.97l0.808,0.97l-1.616,3.719l-3.072-0.162l-3.395-3.557L40.387,516.076z M19.695,502.012
				l1.131,2.587l1.132,1.616l-1.132,0.809l-2.102-3.072v-1.939H19.695z M5.954,575.083l3.395-2.264l3.395-0.97l2.587,0.323
				l0.485,1.616l1.94,0.485l1.94-1.94l-0.323-1.616l2.748-0.646l2.91,2.586l-1.131,1.778l-4.365,1.132l-2.749-0.484l-3.718-1.132
				l-4.365,1.455l-1.617,0.323L5.954,575.083z M54.937,570.556l1.616,1.94l2.102-1.617l-1.455-1.293L54.937,570.556z
				 M57.847,573.628l1.132-2.264l2.102,0.323l-0.809,1.94H57.847z M81.449,571.688l1.455,1.778l0.97-1.132l-0.808-1.939
				L81.449,571.688z M90.179,559.24l1.131,5.819l2.91,0.809l5.011-2.91l4.365-2.587l-1.616-2.425l0.485-2.425l-2.102,1.293
				l-2.91-0.808l1.617-1.132l1.94,0.809l3.88-1.778l0.485-1.455l-2.425-0.809l0.808-1.939l-2.748,1.939l-4.688,3.557l-4.85,2.91
				L90.179,559.24z M132.534,539.355l2.425-1.455l-0.97-1.778l-1.778,0.97L132.534,539.355z"/>
			
				<path id="FL" sodipodi:nodetypes="cccccccccccccccccccccccccccccccccccccccccccccccccccccccccccccccccccccccccccccccccccccccccccccccccccccccccccccccccccccccccccccccccccccccccccccc" fill="#D3D3D3" stroke="#FFFFFF" stroke-width="0.75" d="
				M759.816,439.143l2.266,7.318l3.73,9.743l5.334,9.376l3.719,6.305l4.85,5.496l4.041,3.719l1.617,2.909l-1.132,1.294l-0.809,1.293
				l2.91,7.437l2.91,2.91l2.587,5.335l3.556,5.819l4.527,8.245l1.293,7.598l0.485,11.963l0.646,1.778l-0.323,3.395l-2.426,1.294
				l0.324,1.939l-0.647,1.939l0.323,2.426l0.485,1.939l-2.748,3.233l-3.071,1.455l-3.88,0.161l-1.455,1.617l-2.425,0.97
				l-1.294-0.485l-1.131-0.97l-0.324-2.91l-0.808-3.395l-3.396-5.173l-3.556-2.264l-3.88-0.323l-0.809,1.293l-3.071-4.364
				l-0.647-3.557l-2.586-4.042l-1.778-1.131l-1.616,2.102l-1.778-0.323l-2.103-5.012l-2.909-3.88l-2.91-5.335l-2.587-3.071
				l-3.556-3.719l2.102-2.425l3.232-5.496l-0.161-1.617l-4.526-0.97l-1.617,0.646l0.323,0.647l2.587,0.97l-1.455,4.526l-0.809,0.485
				l-1.778-4.042l-1.293-4.85l-0.323-2.748l1.455-4.688v-9.538l-3.071-3.718l-1.294-3.072l-5.173-1.293l-1.939-0.646l-1.617-2.587
				l-3.395-1.616l-1.132-3.396l-2.748-0.97l-2.425-3.718l-4.203-1.455l-2.91-1.455h-2.587l-4.041,0.809l-0.162,1.939l0.809,0.971
				l-0.485,1.131l-3.071-0.161l-3.718,3.557l-3.557,1.939h-3.88l-3.233,1.293l-0.323-2.748l-1.616-1.939l-2.91-1.132l-1.617-1.455
				l-8.083-3.88l-7.598-1.778l-4.365,0.646l-5.981,0.485l-5.981,2.102l-3.479,0.613l-0.238-8.05l-2.587-1.94l-1.777-1.778
				l0.323-3.071l10.185-1.293l25.542-2.91l6.79-0.646l5.436,0.28l2.587,3.88l1.455,1.455l8.098,0.515l10.82-0.646l21.512-1.293
				l5.446-0.675l5.107,0.205l0.427,2.909l2.233,0.809l0.234-4.63l-1.528-4.173l1.309-1.44l5.555,0.455L759.816,439.143z
				 M772.362,571.548l2.425-0.646l1.293-0.242l1.455-2.345l2.344-1.616l1.294,0.484l1.697,0.323l0.404,1.051l-3.476,1.213
				l-4.203,1.455l-2.345,1.213L772.362,571.548z M785.861,566.536l1.212,1.051l2.748-2.102l5.335-4.203l3.719-3.88l2.505-6.628
				l0.971-1.697l0.161-3.396l-0.728,0.485l-0.97,2.829l-1.455,4.607l-3.233,5.254l-4.364,4.203l-3.396,1.94L785.861,566.536z"/>
			<path id="NH" sodipodi:nodetypes="ccccccccccccccccccccccccccccccccc" fill="#D3D3D3" stroke="#FFFFFF" stroke-width="0.75" d="
				M880.799,142.425l0.869-1.077l1.09-3.291l-2.543-0.914l-0.484-3.071l-3.88-1.132l-0.323-2.748l-7.275-23.441l-4.602-14.543
				l-0.896-0.005l-0.646,1.617l-0.646-0.485l-0.971-0.97l-1.455,1.94l-0.048,5.032l0.312,5.667l1.939,2.748v4.042l-3.718,5.063
				l-2.587,1.131v1.132l1.132,1.778v8.568l-0.809,9.215l-0.161,4.85l0.97,1.293l-0.161,4.526l-0.485,1.778l0.969,0.709l16.788-4.425
				l2.175-0.603l1.843-2.773L880.799,142.425z"/>
			<path id="path57" fill="none" stroke="#A9A9A9" stroke-width="2" d="M211,493v55l36,45 M0,425h144l67,68h86l53,54v46"/>
			<g id="MI">
				
					<path id="MI-" sodipodi:nodetypes="cccccccccccsccccccccccccccccccccccccccccccccccccccccccccccccccccccccccccccccccccccccccccccccccccc" fill="#D3D3D3" stroke="#FFFFFF" stroke-width="0.75" d="
					M697.86,177.237l-3.233-8.245l-2.264-9.053l-2.425-3.233l-2.586-1.778l-1.617,1.132l-3.88,1.778l-1.939,5.011l-2.748,3.718
					l-1.132,0.646l-1.455-0.646c0,0-2.587-1.455-2.425-2.102c0.161-0.646,0.484-5.012,0.484-5.012l3.396-1.293l0.808-3.395
					l0.647-2.586l2.425-1.617l-0.323-10.023l-1.617-2.263l-1.293-0.809l-0.809-2.102l0.809-0.808l1.616,0.323l0.162-1.617
					l-2.425-2.263l-1.294-2.586h-2.586l-4.526-1.455l-5.497-3.395h-2.748l-0.646,0.647l-0.97-0.485l-3.072-2.264l-2.909,1.778
					l-2.91,2.263l0.323,3.557l0.97,0.323l2.102,0.485l0.485,0.809l-2.587,0.808l-2.586,0.324l-1.455,1.778l-0.323,2.102l0.323,1.616
					l0.323,5.497l-3.557,2.102l-0.646-0.162v-4.203l1.293-2.425l0.646-2.425l-0.808-0.809l-1.94,0.809l-0.97,4.203l-2.748,1.131
					l-1.778,1.94l-0.162,0.97l0.646,0.809l-0.646,2.586l-2.263,0.485v1.132l0.808,2.425l-1.131,6.143l-1.617,4.042l0.646,4.688
					l0.485,1.131l-0.809,2.425l-0.323,0.808l-0.323,2.748l3.557,5.981l2.91,6.466l1.455,4.85l-0.809,4.688l-0.97,5.981l-2.425,5.173
					l-0.324,2.748l-3.259,3.085l4.409-0.162l21.418-2.264l7.278-0.987l0.097,1.667l6.852-1.213l10.298-1.503l3.854-0.461
					l0.138-0.587l0.162-1.455l2.102-3.718l2-1.738l-0.222-5.052l1.597-1.597l1.091-0.343l0.222-3.557l1.536-3.031l1.051,0.606
					l0.162,0.646l0.808,0.162l1.94-0.97L697.86,177.237z"/>
				
					<path id="SP-" inkscape:label="#SP-" sodipodi:nodetypes="ccccccccccccccsccccccccccccccccccccccccccccccccccccccccccccccccccccccccccccccccccccccccccccccccccccccccccccccc" fill="#D3D3D3" stroke="#FFFFFF" stroke-width="0.75" d="
					M581.619,82.059l1.829-2.058l2.172-0.8l5.373-3.887l2.286-0.571l0.457,0.457l-5.144,5.144l-3.315,1.943l-2.058,0.915
					L581.619,82.059z M667.794,114.187l0.646,2.506l3.233,0.162l1.293-1.212c0,0-0.081-1.455-0.404-1.617s-1.616-1.859-1.616-1.859
					l-2.183,0.243l-1.616,0.161l-0.323,1.132L667.794,114.187z M567.492,111.213l0.716-0.581l2.749-0.809l3.556-2.263v-0.97
					l0.647-0.646l5.981-0.97l2.425-1.94l4.364-2.102l0.162-1.293l1.939-2.91l1.778-0.808l1.294-1.778l2.263-2.264l4.365-2.425
					l4.688-0.485l1.132,1.132l-0.323,0.97l-3.718,0.97l-1.455,3.071l-2.264,0.809l-0.484,2.425l-2.425,3.233l-0.324,2.587
					l0.809,0.485l0.97-1.132l3.557-2.91l1.294,1.293h2.263l3.233,0.97l1.455,1.132l1.455,3.071l2.748,2.748l3.88-0.161l1.455-0.97
					l1.616,1.293l1.617,0.485l1.293-0.808h1.132l1.616-0.97l4.042-3.557l3.395-1.131l6.628-0.323l4.526-1.94l2.587-1.293
					l1.455,0.162v5.658l0.484,0.323l2.91,0.808l1.939-0.485l6.144-1.617l1.132-1.131l1.455,0.485v6.951l3.232,3.072l1.294,0.646
					l1.293,0.97l-1.293,0.323l-0.809-0.323l-3.718-0.485l-2.102,0.647l-2.264-0.162l-3.233,1.455h-1.778l-5.819-1.293l-5.173,0.162
					l-1.94,2.586l-6.951,0.647l-2.425,0.808l-1.132,3.072l-1.293,1.131l-0.485-0.162l-1.455-1.617l-4.526,2.425h-0.646l-1.132-1.617
					l-0.809,0.162l-1.939,4.365l-0.97,4.042l-3.182,7.001l-1.177-1.035l-1.371-1.031l-1.941-10.288l-3.544-1.37l-2.053-2.286
					l-12.12-2.744l-2.855-1.029l-8.23-2.173l-7.891-1.143L567.492,111.213z"/>
			</g>
			<path id="VT" sodipodi:nodetypes="ccccccccccccccccccccccccccccc" fill="#D3D3D3" stroke="#FFFFFF" stroke-width="0.75" d="
				M844.484,154.058l0.316-5.346l-2.891-10.784l-0.646-0.323l-2.91-1.293l0.809-2.91l-0.809-2.102l-2.7-4.64l0.97-3.88l-0.808-5.173
				l-2.425-6.466l-0.806-4.922l26.419-6.732l0.309,5.522l1.917,2.743v4.041l-3.708,5.058l-2.586,1.143l-0.012,1.121l1.311,1.52
				l-0.311,8.098l-0.61,9.259l-0.228,5.557l0.97,1.293l-0.161,4.57l-0.485,1.69l1.015,0.727l-7.438,1.507L844.484,154.058z"/>
			
				<path id="ME" sodipodi:nodetypes="ccccccccsccccccccccccccccccccccccccccccccccccccccccccccccccccccccccccccccccccccccccccccccsccccc" fill="#D3D3D3" stroke="#FFFFFF" stroke-width="0.75" d="
				M922.84,78.831l1.939,2.102l2.264,3.718v1.94l-2.102,4.688l-1.94,0.647l-3.395,3.071l-4.85,5.497c0,0-0.646,0-1.293,0
				c-0.647,0-0.971-2.102-0.971-2.102l-1.778,0.162l-0.97,1.455l-2.425,1.455l-0.97,1.455l1.616,1.455l-0.484,0.646l-0.485,2.749
				l-1.94-0.162v-1.617l-0.323-1.293l-1.454,0.323l-1.778-3.233l-2.102,1.293l1.293,1.455l0.323,1.132l-0.809,1.293l0.323,3.072
				l0.162,1.617l-1.616,2.586l-2.91,0.485l-0.323,2.91l-5.335,3.071l-1.293,0.485l-1.617-1.455l-3.071,3.556l0.97,3.233
				l-1.455,1.293l-0.161,4.365l-1.124,6.259l-2.462-1.156l-0.485-3.072l-3.879-1.131l-0.324-2.749l-7.274-23.441l-4.698-14.64
				l1.42-0.118l1.514,0.41v-2.587l1.309-4.496l2.587-4.688l1.455-4.042l-1.94-2.425v-5.981l0.809-0.97l0.809-2.749l-0.162-1.455
				l-0.161-4.85l1.778-4.85l2.909-8.892l2.102-4.203h1.294l1.293,0.162v1.132l1.293,2.263l2.748,0.646l0.809-0.808v-0.97l4.042-2.91
				l1.778-1.778l1.454,0.162l5.981,2.425l1.94,0.97l9.053,29.907h5.981l0.809,1.94l0.161,4.85l2.91,2.263h0.809l0.161-0.485
				l-0.484-1.132L922.84,78.831z M901.908,108.979l1.535-1.536l1.375,1.051l0.565,2.425l-1.697,0.889L901.908,108.979z
				 M908.617,103.078l1.778,1.859c0,0,1.293,0.081,1.293-0.242s0.242-2.021,0.242-2.021l0.89-0.808l-0.809-1.778l-2.021,0.728
				L908.617,103.078z"/>
			<path id="RI" sodipodi:nodetypes="ccccccccccc" fill="#006837" d="M874.07,178.896l-3.696-14.956l6.27-1.845l2.191,1.927
				l3.306,4.32l2.688,4.402l-2.999,1.625l-1.294-0.162l-1.132,1.778l-2.425,1.94L874.07,178.896z"/>
			<g id="XMLID_2_">
				<g>
					<polygon fill="#006837" points="847.72,193.31 848.51,194.99 846.57,196.77 845.45,196.57 845.48,196.43 845.32,194.32 
						842.5,192.63 837.98,191.66 834.1,190.52 830.38,188.75 829.25,187.78 826.66,187.61 824.4,185.67 823.55,182.48 
						846.31,177.44 847.01,180.97 847.01,189.05 845.88,191.32 					"/>
					<polygon fill="#006837" points="846.9,198.06 848.19,197.74 849.65,196.44 851.91,193.86 853.04,193.21 854.66,193.86 
						856.92,194.02 864.84,190.14 867.75,187.39 869.04,185.94 873.25,187.55 869.85,191.11 865.97,194.02 858.86,199.35 
						856.27,200.32 850.45,202.26 846.41,203.4 845.24,202.86 844.99,199.17 845.45,196.57 846.57,196.77 					"/>
					<polygon fill="#D3D3D3" stroke="#FFFFFF" stroke-width="0.75" points="846.31,177.44 823.55,182.48 822.77,179.54 
						819.31,179.64 816.87,176.93 797.48,181.31 754.48,190.04 746.95,191.27 746.21,184.8 747.64,183.67 748.93,182.54 
						749.9,180.92 751.68,179.79 753.62,178.02 754.1,176.4 756.21,173.65 757.34,172.68 757.18,171.71 755.88,168.64 754.1,168.48 
						752.17,162.33 755.08,160.56 759.44,159.1 763.48,157.81 766.71,157.32 773.02,157.16 774.96,158.45 776.58,158.62 
						778.68,157.32 781.26,156.19 786.44,155.71 788.54,153.93 790.32,150.69 791.93,148.75 794.04,148.75 795.97,147.62 
						796.14,145.36 794.68,143.26 794.36,141.8 795.49,139.7 795.49,138.25 793.71,138.25 791.93,137.44 791.12,136.31 
						790.96,133.72 796.78,128.22 797.43,127.42 798.88,124.51 801.79,119.98 804.54,116.26 806.64,113.84 809.06,112.01 
						812.14,110.76 817.64,109.47 820.87,109.63 825.4,108.18 832.96,106.11 833.48,111.09 835.91,117.55 836.71,122.73 
						835.75,126.61 838.33,131.13 839.14,133.23 838.33,136.14 841.24,137.44 841.89,137.76 844.96,148.75 844.42,153.81 
						843.94,164.64 844.75,170.14 845.56,173.7 					"/>
				</g>
				<g>
					<polygon fill="none" stroke="#FFFFFF" stroke-width="0.75" points="845.45,196.57 845.48,196.43 845.32,194.32 842.5,192.63 
						837.98,191.66 834.1,190.52 830.38,188.75 829.25,187.78 826.66,187.61 824.4,185.67 823.55,182.48 822.77,179.54 
						819.31,179.64 816.87,176.93 797.48,181.31 754.48,190.04 746.95,191.27 746.21,184.8 747.64,183.67 748.93,182.54 
						749.9,180.92 751.68,179.79 753.62,178.02 754.1,176.4 756.21,173.65 757.34,172.68 757.18,171.71 755.88,168.64 754.1,168.48 
						752.17,162.33 755.08,160.56 759.44,159.1 763.48,157.81 766.71,157.32 773.02,157.16 774.96,158.45 776.58,158.62 
						778.68,157.32 781.26,156.19 786.44,155.71 788.54,153.93 790.32,150.69 791.93,148.75 794.04,148.75 795.97,147.62 
						796.14,145.36 794.68,143.26 794.36,141.8 795.49,139.7 795.49,138.25 793.71,138.25 791.93,137.44 791.12,136.31 
						790.96,133.72 796.78,128.22 797.43,127.42 798.88,124.51 801.79,119.98 804.54,116.26 806.64,113.84 809.06,112.01 
						812.14,110.76 817.64,109.47 820.87,109.63 825.4,108.18 832.96,106.11 833.48,111.09 835.91,117.55 836.71,122.73 
						835.75,126.61 838.33,131.13 839.14,133.23 838.33,136.14 841.24,137.44 841.89,137.76 844.96,148.75 844.42,153.81 
						843.94,164.64 844.75,170.14 845.56,173.7 846.31,177.44 847.01,180.97 847.01,189.05 845.88,191.32 847.72,193.31 
						848.51,194.99 846.57,196.77 846.9,198.06 848.19,197.74 849.65,196.44 851.91,193.86 853.04,193.21 854.66,193.86 
						856.92,194.02 864.84,190.14 867.75,187.39 869.04,185.94 873.25,187.55 869.85,191.11 865.97,194.02 858.86,199.35 
						856.27,200.32 850.45,202.26 846.41,203.4 845.24,202.86 844.99,199.17 					"/>
					<polyline fill="none" stroke="#FFFFFF" stroke-width="0.75" points="823.55,182.48 846.31,177.44 846.35,177.43 					"/>
				</g>
			</g>
			
				<path id="PA" sodipodi:nodetypes="cccccccccccccccccccccccccccccccccccccccccccc" fill="#D3D3D3" stroke="#FFFFFF" stroke-width="0.75" d="
				M825.124,224.692l1.308-0.271l2.33-1.253l1.212-2.483l1.616-2.263l3.233-3.071v-0.809l-2.425-1.617l-3.557-2.425l-0.97-2.586
				l-2.748-0.323l-0.162-1.132l-0.809-2.748l2.264-1.132l0.162-2.425l-1.294-1.293l0.162-1.616l1.939-3.072v-3.072l2.698-2.646
				l-0.921-0.675l-2.523-0.193l-2.295-1.94l-1.55-6.116l-3.505,0.101l-2.455-2.704l-18.091,4.198l-43.002,8.729l-8.892,1.455
				l-0.62-6.521l-5.362,5.068l-1.294,0.485l-4.202,3.009l2.911,19.138l2.481,9.729l3.571,19.261l3.27-0.638l11.943-1.502
				l37.927-7.665l14.877-2.823l8.3-1.623l0.268-0.239l2.102-1.616L825.124,224.692z"/>
			<g id="XMLID_3_">
				<g>
					<polygon fill="#006837" points="845.17,206.73 846.3,205.92 847.33,208.09 846.31,208.58 830.41,211.68 828.81,210.59 
						827.84,208.01 825.09,207.68 824.93,206.55 824.12,203.8 826.39,202.67 826.55,200.25 825.25,198.95 825.42,197.34 
						827.36,194.27 827.36,191.19 829.68,188.46 833.26,190.11 837.4,191.49 842.49,192.66 845.3,194.41 845.42,196.38 
						844.85,199.13 845.23,202.56 845.17,203.66 843.07,205.6 841.93,206.57 842.42,207.05 					"/>
					<polygon fill="#D3D3D3" stroke="#FFFFFF" stroke-width="0.75" points="847.92,209.32 848.08,218.69 848.72,219.82 
						847.59,225.32 844.52,231.79 841.77,235.83 840.96,240.68 838.86,243.1 838.05,243.1 837.73,240.36 838.54,239.39 
						838.38,237.93 834.34,237.28 829.49,235.02 826.25,232.11 825.16,229.87 825.77,227.26 826.01,226.05 826.48,224.44 
						828.74,223.15 830.19,220.4 831.81,218.14 834.79,215.44 834.79,214.64 832.37,213.02 830.41,211.68 846.31,208.58 
						847.33,208.09 					"/>
				</g>
				<g>
					<polygon fill="none" stroke="#FFFFFF" stroke-width="0.75" points="847.33,208.09 846.3,205.92 845.17,206.73 842.42,207.05 
						841.93,206.57 843.07,205.6 845.17,203.66 845.23,202.56 844.85,199.13 845.42,196.38 845.3,194.41 842.49,192.66 
						837.4,191.49 833.26,190.11 829.68,188.46 827.36,191.19 827.36,194.27 825.42,197.34 825.25,198.95 826.55,200.25 
						826.39,202.67 824.12,203.8 824.93,206.55 825.09,207.68 827.84,208.01 828.81,210.59 830.41,211.68 832.37,213.02 
						834.79,214.64 834.79,215.44 831.81,218.14 830.19,220.4 828.74,223.15 826.48,224.44 826.01,226.05 825.77,227.26 
						825.16,229.87 826.25,232.11 829.49,235.02 834.34,237.28 838.38,237.93 838.54,239.39 837.73,240.36 838.05,243.1 
						838.86,243.1 840.96,240.68 841.77,235.83 844.52,231.79 847.59,225.32 848.72,219.82 848.08,218.69 847.92,209.32 					"/>
					<polyline fill="none" stroke="#FFFFFF" stroke-width="0.75" points="830.35,211.69 830.41,211.68 846.31,208.58 					"/>
				</g>
			</g>
			<path id="DE" sodipodi:nodetypes="cccccccccccccccccccc" fill="#D3D3D3" stroke="#FFFFFF" stroke-width="0.75" d="
				M825.626,228.279l0.368-2.147l0.375-1.691l-1.623,0.397l-1.615,0.468l-2.206,1.764l1.72,5.043l2.264,5.658l2.102,9.7l1.616,6.305
				l5.012-0.162l6.143-1.181l-2.265-7.386l-0.97,0.485l-3.557-2.425l-1.778-4.688l-1.939-3.557l-3.147-2.87l-0.864-2.098
				L825.626,228.279z"/>
			
				<path id="MD" sodipodi:nodetypes="ccccccccccccccccccccccccccccccccccccccccccccccccccsccccccccccccccccccccccccccccsccc" fill="#D3D3D3" stroke="#FFFFFF" stroke-width="0.75" d="
				M839.792,252.415l-6.009,1.204l-5.143,0.118l-1.844-6.923l-1.925-9.169l-2.573-6.188l-1.288-4.398l-7.506,1.623l-14.876,2.823
				l-37.451,7.551l1.131,5.012l0.97,5.658l0.323-0.324l2.102-2.425l2.264-2.618l2.425-0.615l1.455-1.455l1.778-2.586l1.293,0.646
				l2.91-0.323l2.586-2.102l2.008-1.453l1.845-0.485l1.645,1.13l2.91,1.455l1.939,1.778l1.213,1.536l4.122,1.698v2.91l5.496,1.293
				l1.145,0.542l1.412-2.028l2.882,1.97l-1.278,2.482l-0.765,3.985l-1.778,2.587v2.102l0.646,1.778l5.063,1.355l4.312-0.062
				l3.071,0.97l2.102,0.323l0.97-2.102l-1.454-2.102v-1.778l-2.425-2.102l-2.102-5.496l1.293-5.335l-0.162-2.102l-1.293-1.293
				c0,0,1.455-1.617,1.455-2.263s0.484-2.102,0.484-2.102l1.94-1.293l1.939-1.617l0.485,0.97l-1.455,1.617l-1.293,3.718l0.323,1.131
				l1.778,0.323l0.484,5.497l-2.102,0.97l0.324,3.556l0.484-0.162l1.132-1.94l1.616,1.778l-1.616,1.293l-0.323,3.395l2.586,3.395
				l3.881,0.485l1.616-0.808l3.236,4.183l1.358,0.536l6.653-2.797l2.008-4.024L839.792,252.415z M823.822,261.443l1.132,2.506
				l0.161,1.778l1.132,1.859c0,0,0.89-0.889,0.89-1.212s-0.728-3.071-0.728-3.071l-0.728-2.344L823.822,261.443z"/>
			
				<path id="VA" sodipodi:nodetypes="ccccccccccccccccccccccccccccccccccccccccccccccccccccccccccccccccccccccccccccccccccc" fill="#D3D3D3" stroke="#FFFFFF" stroke-width="0.75" d="
				M831.639,266.069l-0.144-1.947l6.453-2.55l-0.771,3.218l-2.92,3.779l-0.418,4.586l0.462,3.391l-1.828,4.978l-2.164,1.916
				l-1.471-4.641l0.446-5.449l1.587-4.183L831.639,266.069z M834.979,294.37l-58.175,12.575l-37.427,5.279l-6.679-0.375
				l-2.585,1.926l-7.339,0.221l-8.383,0.979l-10.914,1.614l10.469-5.611l-0.013-2.075l1.52-2.146l10.554-11.501l3.947,4.477
				l3.783,0.965l2.543-1.141l2.237-1.312l2.537,1.344l3.914-1.428l1.876-4.557l2.602,0.54l2.855-2.131l1.799,0.493l2.827-3.676
				l0.349-2.083l-0.964-1.276l1.003-1.867l5.274-12.277l0.616-5.735l1.229-0.523l2.178,2.443l3.937-0.301l1.929-7.573l2.794-0.561
				l1.05-2.741l2.58-2.347l2.771-5.695l0.085-5.067l9.822,3.823c0.681,0.34,0.832-5.049,0.832-5.049l3.653,1.598l0.068,2.938
				l5.784,1.299l2.133,1.176l1.66,2.056l-0.655,3.648l-1.947,2.591l0.11,2.059l0.589,1.853l4.979,1.268l4.451,0.04l3.069,0.958
				l1.943,0.31l0.715,3.088l3.19,0.402l0.868,1.2l-0.439,4.69l1.374,1.103l-0.479,1.931l1.229,0.79l-0.222,1.385l-2.694-0.095
				l0.089,1.616l2.281,1.543l0.121,1.412l1.773,1.786l0.491,2.524l-2.553,1.381l1.572,1.494l5.801-1.686L834.979,294.37z"/>
			
				<path id="WV" sodipodi:nodetypes="ccccccccccccccccccccccccccccccccccccccccscccccccccccccccccccccccccccccccccccccccccc" fill="#D3D3D3" stroke="#FFFFFF" stroke-width="0.75" d="
				M761.186,238.967l1.112,4.945l1.083,6.031l2.131-2.581l2.263-3.072l2.538-0.615l1.455-1.455l1.778-2.586l1.445,0.646l2.91-0.323
				l2.586-2.102l2.007-1.453l1.846-0.485l1.304,1.016l3.644,1.822l1.939,1.778l1.374,1.293l-0.762,5.555l-5.835-2.542l-4.245-1.622
				l-0.101,5.178l-2.748,5.537l-2.53,2.427l-1.191,2.75l-2.644,0.5l-0.898,3.602l-1.043,3.95l-3.969,0.341l-2.323-2.439l-1.071,0.56
				l-0.633,5.47l-1.35,3.535l-4.959,10.955l0.896,1.161l-0.205,1.908l-2.81,3.885l-1.808-0.544l-2.969,2.16l-2.542-0.572
				l-1.999,4.556c0,0-3.26,1.43-3.923,1.367c-0.161-0.015-2.47-1.248-2.47-1.248l-2.336,1.379l-2.41,1.045l-3.745-0.89l-1.121-1.169
				l-2.192-3.022l-3.143-1.988l-1.711-3.623l-4.285-3.468l-0.646-2.263l-2.587-1.455l-0.809-1.617l-0.242-5.254l2.183-0.081
				l1.939-0.808l0.162-2.748l1.616-1.455l0.162-5.012l0.97-3.88l1.293-0.646l1.294,1.132l0.484,1.778l1.778-0.97l0.485-1.617
				l-1.132-1.778v-2.425l0.97-1.293l2.264-3.395l1.293-1.455l2.102,0.485l2.264-1.617l3.071-3.395l2.264-3.88l0.323-5.658
				l0.484-5.011v-4.688l-1.131-3.071l0.97-1.455l1.283-1.293l3.491,19.827l4.631-0.751L761.186,238.967z"/>
			
				<path id="OH" sodipodi:nodetypes="cccccccccccccccccccccccccccccccccccccccccccccccccccccccccccccccc" fill="#D3D3D3" stroke="#FFFFFF" stroke-width="0.75" d="
				M735.325,193.328l-6.094,4.054l-3.88,2.263l-3.395,3.718l-4.042,3.88l-3.233,0.808l-2.909,0.485l-5.497,2.587l-2.102,0.162
				l-3.395-3.072l-5.173,0.646l-2.587-1.455l-2.381-1.351l-4.893,0.704l-10.185,1.617l-11.207,2.185l1.293,14.63l1.778,13.741
				l2.587,23.44l0.565,4.832l4.122-0.129l2.426-0.808l3.363,1.503l2.07,4.365l5.14-0.018l1.892,2.119l1.761-0.065l2.538-1.341
				l2.505,0.372l5.421,0.482l1.728-2.133l2.346-1.293l2.07-0.681l0.646,2.749l1.778,0.97l3.476,2.344l2.183-0.081l1.333-0.492
				l0.185-2.762l1.585-1.455l0.1-4.792l1.023-4.109l1.3-0.601l1.321,1.148l0.538,1.697l1.719-1.038l0.439-1.46l-1.117-1.903
				l0.066-2.314l0.749-1.072l2.153-3.306l1.05-1.543l2.102,0.485l2.264-1.617l3.071-3.395l2.771-4.079l0.32-5.055l0.485-5.012
				l-0.177-5.307l-0.955-2.895l0.351-1.19l1.805-1.75l-2.289-9.047L735.325,193.328z"/>
			<path id="IN" fill="#D3D3D3" stroke="#FFFFFF" stroke-width="0.75" d="M619.569,299.971l0.065-2.857l0.485-4.527l2.263-2.91
				l1.778-3.88l2.587-4.203l-0.485-5.82l-1.778-2.748l-0.323-3.233l0.809-5.496l-0.485-6.952l-1.293-16.004l-1.293-15.358
				l-0.971-11.72l3.071,0.889l1.454,0.97l1.132-0.323l2.102-1.94l2.83-1.617l5.093-0.162l21.985-2.263l5.576-0.533l1.503,15.957
				l4.252,36.841l0.598,5.771l-0.371,2.263l1.228,1.795l0.097,1.373l-2.521,1.6l-3.539,1.551l-3.202,0.55l-0.599,4.867l-4.574,3.312
				l-2.797,4.01l0.323,2.376l-0.581,1.534h-3.326l-1.586-1.616l-2.493,1.262l-2.684,1.503l0.162,3.055l-1.193,0.258l-0.469-1.019
				l-2.166-1.503l-3.251,1.342l-1.551,3.006l-1.438-0.809l-1.454-1.6l-4.465,0.485l-5.593,0.97L619.569,299.971z"/>
			
				<path id="IL" sodipodi:nodetypes="ccccccccccccccccccccccccccccccccccccccccccccccccccccccccccccccccccccccccccccccccccc" fill="#D3D3D3" stroke="#FFFFFF" stroke-width="0.75" d="
				M619.541,300.342l0.031-3.229l0.567-4.646l2.333-2.916l1.866-4.076l2.233-3.995l-0.371-5.252l-2.006-3.543l-0.096-3.347
				l0.694-5.269l-0.825-7.179l-1.066-15.777l-1.293-15.017l-0.923-11.64l-0.272-0.921l-0.809-2.587l-1.293-3.718l-1.616-1.778
				l-1.455-2.587l-0.233-5.489l-45.797,2.598l0.229,2.372l2.286,0.686l0.915,1.144l0.457,1.829l3.887,3.429l0.686,2.287
				l-0.686,3.429l-1.829,3.658l-0.686,2.515l-2.286,1.829l-1.829,0.686l-5.259,1.372l-0.686,1.829l-0.686,2.058l0.686,1.372
				l1.829,1.6l-0.229,4.115l-1.829,1.601l-0.687,1.6v2.744l-1.829,0.457l-1.6,1.144l-0.229,1.372l0.229,2.058l-1.715,1.314
				l-1.029,2.801l0.458,3.658l2.286,7.316l7.315,7.544l5.487,3.658l-0.229,4.344l0.914,1.372l6.401,0.458l2.744,1.372l-0.687,3.658
				l-2.286,5.944l-0.686,3.201l2.286,3.886l6.401,5.259l4.572,0.687l2.058,5.029l2.058,3.201l-0.914,2.972l1.601,4.115l1.828,2.058
				l1.414-0.881l0.908-2.074l2.213-1.748l2.132-0.614l2.603,1.18l3.627,1.376l1.188-0.299l0.2-2.258l-1.287-2.412l0.304-2.377
				l1.839-1.348l3.022-0.81l1.261-0.458l-0.612-1.388l-0.792-2.354l1.433-0.98L619.541,300.342z"/>
			<path id="CT" sodipodi:nodetypes="cccccccccccccccc" fill="#006837" stroke="#FFFFFF" stroke-width="0.75" d="M874.068,178.863
				l-3.678-14.879l-4.719,0.92l-21.229,4.743l1,3.226l1.455,7.275l0.177,8.967l-1.22,2.175l1.921,1.933l4.271-3.906l3.556-3.233
				l1.94-2.102l0.809,0.646l2.748-1.455l5.173-1.132L874.068,178.863z"/>
			
				<path id="WI" sodipodi:nodetypes="ccccccccccccccccccccccccccccccccccccccccccccccccccccccccccccccccccccccccccccccccccccccccc" fill="#D3D3D3" stroke="#FFFFFF" stroke-width="0.75" d="
				M615.066,197.369l-0.067-3.157l-1.179-4.527l-0.646-6.143l-1.132-2.425l0.97-3.072l0.809-2.91l1.455-2.586l-0.647-3.395
				l-0.646-3.557l0.485-1.778l1.939-2.425l0.162-2.748l-0.809-1.293l0.646-2.586l-0.452-4.171l2.748-5.658l2.91-6.79l0.161-2.263
				l-0.323-0.97l-0.808,0.485l-4.203,6.305l-2.749,4.042l-1.939,1.778l-0.809,2.263l-1.955,0.808l-1.131,1.94l-1.455-0.323
				l-0.162-1.778l1.294-2.425l2.102-4.688l1.777-1.617l0.991-2.358l-2.561-1.901l-1.975-10.367l-3.548-1.342l-1.946-2.308
				l-12.129-2.722l-2.876-1.012l-8.214-2.167l-7.917-1.159l-3.766-5.13l-0.75,0.554l-1.198-0.162l-0.646-1.131l-1.334,0.296
				l-1.132,0.162l-1.778,0.97l-0.97-0.647l0.646-1.94l1.939-3.071l1.132-1.132l-1.939-1.455l-2.102,0.808l-2.91,1.94l-7.437,3.233
				l-2.91,0.646l-2.909-0.485l-0.982-0.878l-2.116,2.835l-0.229,2.744v8.459l-1.144,1.601l-5.258,3.886l-2.286,5.944l0.457,0.229
				l2.515,2.058l0.686,3.201l-1.829,3.201v3.887l0.458,6.63l2.972,2.972h3.43l1.829,3.201l3.429,0.458l3.887,5.715l7.088,4.115
				l2.057,2.744l0.915,7.43l0.686,3.315l2.286,1.601l0.229,1.372l-2.058,3.429l0.229,3.201l2.515,3.887l2.515,1.143l2.972,0.458
				l1.343,1.38L615.066,197.369z"/>
			
				<path id="NC" sodipodi:nodetypes="cccccccccccccccccccccccccccccccccccccccccccccccccccccccccccscccccccccccccccccccccccccccccccc" fill="#D3D3D3" stroke="#FFFFFF" stroke-width="0.75" d="
				M834.981,294.315l2.085,4.917l3.557,6.467l2.425,2.425l0.646,2.264l-2.425,0.161l0.809,0.646l-0.323,4.203l-2.587,1.294
				l-0.646,2.102l-1.293,2.909l-3.719,1.617l-2.425-0.323l-1.455-0.161l-1.616-1.294l0.323,1.294v0.969h1.939l0.809,1.294
				l-1.939,6.305h4.203l0.646,1.616l2.263-2.263l1.294-0.485l-1.94,3.557l-3.071,4.85h-1.293l-1.132-0.484l-2.748,0.646
				l-5.174,2.425l-6.466,5.335l-3.396,4.688l-1.939,6.467l-0.485,2.425l-4.688,0.485L799.767,362l-9.946-8.202l-12.61-7.598
				l-2.909-0.809l-12.609,1.455l-4.277,0.75l-1.616-3.233l-2.971-2.116l-16.489,0.485l-7.274,0.808l-9.053,4.526l-6.144,2.587
				l-21.178,2.587l0.5-4.055l1.778-1.455l2.749-0.646l0.646-3.719l4.203-2.748l3.88-1.455l4.203-3.557l4.364-2.102l0.646-3.071
				l3.881-3.88l0.646-0.162c0,0,0,1.133,0.808,1.133c0.809,0,1.94,0.322,1.94,0.322l2.263-3.557l2.102-0.646l2.264,0.324
				l1.616-3.557l2.91-2.587l0.485-2.102l0.188-3.648l4.276-0.022l7.198-0.855l15.758-2.252l15.136-2.088l21.641-4.719l19.983-4.258
				l11.177-2.406L834.981,294.315z M839.252,327.521l2.587-2.505l3.152-2.587l1.535-0.646l0.162-2.021l-0.646-6.143l-1.455-2.344
				l-0.646-1.859l0.728-0.242l2.748,5.496l0.404,4.445l-0.162,3.396l-3.395,1.536l-2.829,2.424l-1.132,1.213L839.252,327.521z"/>
			<path id="DC" sodipodi:nodetypes="cccccc" fill="#D3D3D3" stroke="#FFFFFF" stroke-width="0.75" d="M805.819,250.844
				l-1.858-1.824l-1.232-0.686l1.443-2.022l2.889,1.948L805.819,250.844z"/>
			<polygon fill="#006837" points="903.281,170.968 902.253,170.854 901.795,172.568 899.623,173.254 899.166,173.826 
				903.053,173.711 904.311,173.254 			"/>
			<polygon fill="#006837" points="892.536,171.425 890.25,174.054 891.393,174.969 893.565,173.94 895.966,172.911 
				894.137,171.425 			"/>
			<g id="XMLID_1_">
				<g>
					<polygon fill="#006837" points="901.68,162.09 902.01,164.52 897.8,165.97 893.92,167.91 890.04,172.44 888.1,173.89 
						888.1,172.92 890.53,171.47 891.01,169.69 890.21,166.62 887.3,168.07 886.49,169.53 886.97,171.79 884.91,172.79 
						882.16,168.26 878.76,163.9 876.69,162.09 870.16,163.96 865.07,165.01 859.25,166.31 856.14,151.89 873.1,147.43 
						875.36,146.78 877.28,143.98 881.01,142.32 883.9,146.73 881.48,151.91 881.15,153.36 883.09,155.95 884.22,155.14 886,155.14 
						888.27,157.73 892.15,163.71 895.7,164.19 897.97,163.22 899.74,161.44 898.94,158.7 896.83,157.08 895.38,157.89 
						894.41,156.59 894.89,156.11 897,155.95 898.77,156.76 900.71,159.18 					"/>
					<polygon fill="#D3D3D3" stroke="#FFFFFF" stroke-width="0.75" points="856.14,151.89 859.25,166.31 844.39,169.6 
						843.73,164.84 844.37,154.25 848.66,153.36 855.45,152.07 					"/>
				</g>
				<g>
					<line fill="none" stroke="#FFFFFF" stroke-width="0.75" x1="856.14" y1="151.89" x2="856.14" y2="151.88"/>
					<polyline fill="none" stroke="#FFFFFF" stroke-width="0.75" points="859.25,166.31 865.07,165.01 870.16,163.96 876.69,162.09 
						878.76,163.9 882.16,168.26 884.91,172.79 886.97,171.79 886.49,169.53 887.3,168.07 890.21,166.62 891.01,169.69 
						890.53,171.47 888.1,172.92 888.1,173.89 890.04,172.44 893.92,167.91 897.8,165.97 902.01,164.52 901.68,162.09 
						900.71,159.18 898.77,156.76 897,155.95 894.89,156.11 894.41,156.59 895.38,157.89 896.83,157.08 898.94,158.7 899.74,161.44 
						897.97,163.22 895.7,164.19 892.15,163.71 888.27,157.73 886,155.14 884.22,155.14 883.09,155.95 881.15,153.36 881.48,151.91 
						883.9,146.73 881.01,142.32 877.28,143.98 875.36,146.78 873.1,147.43 856.14,151.89 855.45,152.07 848.66,153.36 
						844.37,154.25 843.73,164.84 844.39,169.6 859.25,166.31 					"/>
				</g>
			</g>
			
				<path id="TN" sodipodi:nodetypes="ccccccccccccccccccccccccccccccsccccccccccccc" fill="#D3D3D3" stroke="#FFFFFF" stroke-width="0.75" d="
				M696.678,318.254l-51.893,5.012l-15.76,1.778l-4.621,0.513l-3.868-0.027l-0.222,4.101l-8.186,0.264l-6.951,0.647l-8.091-0.125
				l-1.413,7.073l-1.697,5.479l-3.293,2.752l-1.349,4.381l-0.323,2.586l-4.041,2.264l1.455,3.557l-0.971,4.365l-0.968,0.789
				l108.158-10.408l0.403-3.954l1.811-1.491l2.834-0.749l0.672-3.717l4.099-2.705l4.047-1.493l4.084-3.571l4.437-2.025l0.521-3.067
				l4.064-3.984l0.551-0.115c0,0,0.031,1.133,0.84,1.133s1.94,0.354,1.94,0.354l2.263-3.588l2.07-0.646l2.275,0.296l1.599-3.533
				l2.955-2.644l0.422-1.939l0.309-3.711l-2.146-0.199l-2.602,2.027l-6.993,0.029l-18.359,2.387L696.678,318.254z"/>
			
				<path id="AR" sodipodi:nodetypes="cccccccccccccccccccccccccccccccccccccccc" fill="#D3D3D3" stroke="#FFFFFF" stroke-width="0.75" d="
				M593.825,343.053l-3.98,0.717l-5.112-0.634l0.421-1.603l2.979-2.566l0.943-3.656l-1.828-2.973l-78.418,2.516l1.601,6.858v8.23
				l1.371,10.974l0.229,37.837l2.286,1.943l2.972-1.371l2.743,1.143l0.681,6.573l55.621-1.141l1.146-2.09l-0.286-3.55l-1.826-2.972
				l1.599-1.485l-1.599-2.512l0.685-2.51l1.368-5.605l2.519-2.062l-0.687-2.284l3.658-5.372l2.744-1.368l-0.114-1.494l-0.345-1.826
				l2.856-5.598l2.403-1.257l0.384-3.428l1.771-1.241l-3.144-0.484l-1.341-4.011l2.804-2.377l0.551-2.019l1.279-4.047
				L593.825,343.053z"/>
			
				<path id="MO" sodipodi:nodetypes="cccccccccccccccccccccccccccccccccccccccccccccccccccccccccccc" fill="#D3D3D3" stroke="#FFFFFF" stroke-width="0.75" d="
				M558.44,248.113l-2.521-3.087l-1.143-2.286l-64.357,2.4l-2.286,0.114l1.258,2.515l-0.229,2.286l2.516,3.887l3.086,4.115
				l3.087,2.743l2.161,0.229l1.496,0.915v2.972l-1.828,1.601l-0.458,2.286l2.058,3.429l2.515,2.972l2.516,1.829l1.371,11.66
				l0.314,36.073l0.229,4.686l0.457,5.385l22.434-0.867l23.206-0.686l20.805-0.802l11.654-0.229l2.17,3.426l-0.685,3.307
				l-3.087,2.403l-0.572,1.837l5.378,0.458l3.896-0.687l1.717-5.493l0.651-5.856l2.098-2.556l2.597-1.487l0.051-3.05l1.017-1.937
				l-1.694-2.543l-1.331,0.983l-1.993-2.228l-1.284-4.758l0.801-2.52l-1.944-3.427l-1.83-4.576l-4.8-0.8l-6.969-5.598l-1.719-4.114
				l0.799-3.201l2.06-6.058l0.459-2.863l-1.949-1.032l-6.855-0.797l-1.027-1.712l-0.112-4.23l-5.487-3.431l-6.976-7.771
				l-2.286-7.316l-0.229-4.226L558.44,248.113z"/>
			
				<path id="GA" sodipodi:nodetypes="ccccccccccccccccccccccccccccccccccccccccccccccccccccccccccccccccccccccc" fill="#D3D3D3" stroke="#FFFFFF" stroke-width="0.75" d="
				M672.292,355.552v2.183l0.162,2.102l0.646,3.395l3.395,7.922l2.425,9.861l1.455,6.143l1.617,4.85l1.455,6.952l2.102,6.305
				l2.586,3.395l0.485,3.395l1.939,0.809l0.162,2.102l-1.778,4.85l-0.485,3.233l-0.161,1.94l1.616,4.364l0.323,5.335l-0.808,2.425
				l0.646,0.809l1.455,0.809l0.204,3.218l2.233,3.35l2.25,2.162l7.922,0.161l10.819-0.646l21.513-1.293l5.445-0.675l4.577,0.028
				l0.162,2.909l2.587,0.809l0.323-4.364l-1.617-4.527l1.132-1.616l5.82,0.809l4.977,0.317l-0.775-6.299l2.264-10.022l1.455-4.203
				l-0.485-2.587l3.335-6.244l-0.511-1.352l-1.913,0.704l-2.587-1.293l-0.646-2.102l-1.293-3.557l-2.264-2.102l-2.587-0.646
				l-1.616-4.851l-2.925-6.334l-4.203-1.94l-2.102-1.94l-1.294-2.586l-2.102-1.939l-2.263-1.294l-2.264-2.909l-3.071-2.264
				l-4.526-1.778l-0.485-1.455l-2.425-2.91l-0.485-1.454l-3.395-4.971l-3.52,0.099l-3.755-2.356l-1.419-1.293l-0.323-1.778
				l0.871-1.94l2.227-1.109l-0.634-2.098L672.292,355.552z"/>
			
				<path id="SC" sodipodi:nodetypes="cccccccccccccccccccccccccccccccccccccccccccccccccccccc" fill="#D3D3D3" stroke="#FFFFFF" stroke-width="0.75" d="
				M764.943,408.165l-1.777,0.97l-2.586-1.294l-0.647-2.102l-1.293-3.557l-2.263-2.102l-2.587-0.646l-1.617-4.85l-2.748-5.981
				l-4.203-1.939l-2.102-1.94l-1.293-2.587l-2.102-1.939l-2.264-1.293l-2.263-2.91l-3.072-2.264l-4.526-1.777l-0.484-1.455
				l-2.425-2.91l-0.485-1.455l-3.395-5.174l-3.396,0.162l-4.041-2.425l-1.294-1.294l-0.323-1.777l0.809-1.94l2.264-0.97
				l-0.512-2.289l5.769-2.336l9.115-4.59l7.775-0.809l16.114-0.422l2.638,1.877l1.68,3.358l4.302-0.61l12.609-1.455l2.91,0.809
				l12.609,7.598l10.108,8.123l-5.421,5.457l-2.587,6.144l-0.484,6.306l-1.617,0.808l-1.132,2.748l-2.425,0.647l-2.102,3.556
				l-2.748,2.749l-2.263,3.395l-1.617,0.809l-3.557,3.395l-2.91,0.161l0.971,3.233l-5.012,5.497L764.943,408.165z"/>
			
				<path id="KY" sodipodi:nodetypes="ccccccccccccccccccccccccccccccccccccccccccccccccccccccccccccccccccccccccccccccccccccccc" fill="#D3D3D3" stroke="#FFFFFF" stroke-width="0.75" d="
				M725.994,295.271l-2.293,2.401l-3.578,3.994l-4.925,5.465l-1.216,1.716l-0.062,2.102l-4.38,2.164l-5.658,3.396l-7.231,1.799
				l-51.868,4.898l-15.76,1.778l-4.621,0.513l-3.868-0.027l-0.227,4.22l-8.18,0.145l-6.951,0.647l-7.988-0.061l1.208-1.32l2.5-1.541
				l0.229-3.201l0.914-1.828l-1.606-2.539l0.802-1.906l2.264-1.779l2.102-0.646l2.748,1.293l3.557,1.294l1.132-0.323l0.161-2.264
				l-1.293-2.425l0.323-2.263l1.939-1.455l2.587-0.646l1.616-0.646l-0.808-1.779l-0.647-1.939l1.507-0.996
				c0.004-0.037,1.254-3.521,1.238-3.658l3.054-1.479l5.319-0.97l4.494-0.485l1.393,1.627l1.528,0.871l1.591-3.108l3.187-1.283
				l2.205,1.484l0.411,0.999l1.174-0.264l-0.162-2.953l3.131-1.749l2.148-1.074l1.529,1.661l3.317-0.044l0.588-1.571l-0.367-2.263
				l2.601-3.999l4.776-3.438l0.706-4.835l2.925-0.456l3.791-1.646l2.443-1.708l-0.198-1.565l-1.143-1.455l0.566-2.995l4.185-0.118
				l2.3-0.746l3.348,1.429l2.054,4.365l5.133,0.011l2.051,2.208l1.615-0.147l2.602-1.278l5.237,0.573l2.575,0.218l1.688-2.056
				l2.618-1.426l1.882-0.707l0.646,2.836l2.043,1.059l2.643,2.083l0.118,5.673l0.808,1.572l2.59,1.556l0.771,2.294l4.16,3.437
				l1.806,3.624L725.994,295.271z"/>
			
				<path id="AL" sodipodi:nodetypes="cccccccccccccccccccccccccccccccccccccccccccccccc" fill="#D3D3D3" stroke="#FFFFFF" stroke-width="0.75" d="
				M631.307,460.416l-1.491-14.322l-2.748-18.752l0.162-14.064l0.808-31.039l-0.161-16.65l0.165-6.42l44.484-3.619l-0.147,2.182
				l0.161,2.102l0.646,3.396l3.396,7.921l2.425,9.861l1.455,6.144l1.616,4.85l1.455,6.952l2.102,6.305l2.587,3.395l0.484,3.395
				l1.94,0.809l0.161,2.102l-1.778,4.85l-0.484,3.233l-0.162,1.94l1.617,4.364l0.323,5.335l-0.809,2.425l0.646,0.809l1.455,0.808
				l0.328,2.89l-5.598-0.354l-6.79,0.646l-25.542,2.909l-10.411,1.407l-0.222,2.877l1.778,1.778l2.586,1.94l0.581,7.936
				l-5.542,2.572l-2.748-0.323l2.748-1.939v-0.97l-3.071-5.981l-2.264-0.647l-1.455,4.365l-1.293,2.748l-0.646-0.161H631.307z"/>
			
				<path id="LA" sodipodi:nodetypes="ccccccccccccccccccccccccccccccccccccccccccccscccccccccccccccccccccccccccccsccccccccccccccccccccccccccccc" fill="#D3D3D3" stroke="#FFFFFF" stroke-width="0.75" d="
				M607.967,459.161l-3.284-3.166l1.01-5.5l-0.661-0.894l-9.262,1.007l-25.028,0.459l-0.685-2.395l0.913-8.456l3.315-5.945
				l5.031-8.691l-0.573-2.398l1.256-0.681l0.459-1.952l-2.286-2.056l-0.111-1.942l-1.831-4.346l-0.146-6.339l-55.475,0.924
				l0.029,9.573l0.686,9.374l0.686,3.887l2.516,4.115l0.914,5.029l4.344,5.487l0.229,3.2l0.687,0.687l-0.687,8.459l-2.972,5.029
				l1.6,2.058l-0.686,2.515l-0.686,7.316l-1.372,3.2l0.123,3.617l4.687-1.521l12.113,0.207l10.346,3.557l6.467,1.132l3.718-1.455
				l3.233,1.132l3.233,0.97l0.809-2.102l-3.233-1.132l-2.587,0.485l-2.748-1.617c0,0,0.161-1.293,0.809-1.455
				c0.646-0.161,3.071-0.97,3.071-0.97l1.778,1.455l1.778-0.97l3.233,0.646l1.454,2.425l0.324,2.264l4.526,0.323l1.778,1.778
				L580,487.106l-1.293,0.809l1.616,1.616l8.406,3.557l3.557-1.293l0.97-2.425l2.587-0.647l1.778-1.454l1.293,0.97l0.809,2.91
				l-2.264,0.808l0.646,0.646l3.396-1.293l2.263-3.395l0.809-0.485l-2.102-0.323l0.809-1.616l-0.162-1.455l2.102-0.485l1.132-1.293
				l0.646,0.808c0,0-0.161,3.072,0.646,3.072c0.809,0,4.203,0.646,4.203,0.646l4.042,1.939l0.97,1.455h2.91l1.132,0.971l2.263-3.072
				v-1.455h-1.293l-3.396-2.748l-5.819-0.809l-3.233-2.263l1.132-2.748l2.264,0.323l0.161-0.646l-1.778-0.971v-0.484h3.233
				l1.778-3.071l-1.293-1.94l-0.323-2.748l-1.455,0.161l-1.94,2.102l-0.646,2.587l-3.071-0.646l-0.971-1.778l1.778-1.94l1.903-3.445
				l-1.061-2.412L607.967,459.161z"/>
			
				<path id="MS" sodipodi:nodetypes="ccccccccccccccccccccccccccccccccccccccccccccccccccc" fill="#D3D3D3" stroke="#FFFFFF" stroke-width="0.75" d="
				M631.559,459.345l-0.254,1.256h-5.173l-1.455-0.809l-2.102-0.323l-6.79,1.94l-1.778-0.809l-2.587,4.203l-1.103,0.778
				l-1.123-2.488l-1.144-3.887l-3.43-3.2l1.144-5.545l-0.686-0.914l-1.829,0.229l-7.918,0.873l-24.547,0.374l-0.77-2.226
				l0.873-8.377l3.117-5.673l5.227-9.145l-0.445-2.433l1.237-0.656l0.436-1.92l-2.317-2.079l-0.115-2.142l-1.836-4.121l-0.109-5.963
				l1.328-2.48l-0.224-3.416l-1.77-3.082l1.526-1.482l-1.57-2.499l0.457-1.652l1.578-6.527l2.485-2.036l-0.642-2.366l3.658-5.303
				l2.832-1.357l-0.222-1.674l-0.288-1.682l2.876-5.568l2.346-1.23l0.152-0.894l37.343-3.882l0.186,6.284l0.161,16.651
				l-0.808,31.038l-0.162,14.064l2.748,18.753L631.559,459.345z"/>
			
				<path id="IA" sodipodi:nodetypes="ccccccccccccccccccccccccccccccccccccccccccccccccccccccc" fill="#D3D3D3" stroke="#FFFFFF" stroke-width="0.75" d="
				M569.191,199.584l0.265,2.786l2.224,0.577l0.954,1.225l0.5,1.855l3.793,3.359l0.686,2.391l-0.675,3.425l-1.582,3.232
				l-0.799,2.742l-2.173,1.602l-1.716,0.572l-5.579,1.86l-1.392,3.849l0.729,1.372l1.841,1.683l-0.283,4.037l-1.763,1.538
				l-0.771,1.644l0.127,2.776l-1.886,0.458l-1.626,1.105l-0.278,1.353l0.278,2.115l-1.551,1.116l-2.471-3.133l-1.263-2.45
				l-65.735,2.515l-0.918,0.166l-2.053-4.516l-0.229-6.63l-1.601-4.115l-0.686-5.258l-2.286-3.658l-0.915-4.801l-2.743-7.544
				l-1.143-5.373l-1.372-2.172l-1.601-2.743l1.954-4.844l1.372-5.716l-2.744-2.058l-0.457-2.744l0.915-2.515h1.714l82.654-1.27
				l0.834,4.183l2.253,1.561l0.256,1.423l-2.029,3.389l0.19,3.206l2.515,3.798l2.527,1.294l3.079,0.503L569.191,199.584z"/>
			
				<path id="MN" sodipodi:nodetypes="ccccccccccccccccccccccccccccccccccccccccccccccccccccccccccccccccccccccccccccccccccccccccccc" fill="#D3D3D3" stroke="#FFFFFF" stroke-width="0.75" d="
				M475.238,128.824l-0.458-8.459l-1.829-7.316l-1.828-13.489l-0.458-9.831l-1.829-3.429l-1.6-5.03V70.983l0.686-3.887l-1.821-5.452
				l30.133,0.035l0.323-8.245l0.646-0.162l2.264,0.485l1.939,0.808l0.809,5.497l1.455,6.143l1.616,1.617h4.85l0.323,1.455
				l6.306,0.323v2.102h4.85l0.323-1.293l1.132-1.132l2.263-0.646l1.294,0.97h2.909l3.88,2.587l5.335,2.425l2.425,0.485l0.485-0.97
				l1.455-0.485l0.484,2.91l2.587,1.293l0.485-0.485l1.293,0.162v2.102l2.586,0.97h3.072l1.616-0.808l3.233-3.233l2.587-0.485
				l0.808,1.778l0.485,1.293h0.97l0.97-0.808l8.892-0.323l1.778,3.071h0.646l0.714-1.084l4.439-0.371l-0.611,2.28l-3.939,1.837
				l-9.245,4.061l-4.775,2.007l-3.071,2.587l-2.425,3.557l-2.263,3.88l-1.779,0.808l-4.526,5.011l-1.293,0.162l-4.328,2.757
				l-2.463,3.205l-0.229,3.191l0.095,8.043l-1.376,1.688l-5.082,3.76l-2.229,5.982l2.871,2.233l0.681,3.227l-1.855,3.239
				l0.171,3.748l0.369,6.73l3.027,3.002h3.329l1.892,3.133l3.379,0.503l3.859,5.671l7.087,4.117l2.144,2.875l0.671,6.439
				l-81.211,1.145l-0.339-35.677l-0.457-2.972l-4.115-3.429l-1.143-1.829v-1.601l2.058-1.6l1.371-1.372L475.238,128.824z"/>
			
				<path id="OK" sodipodi:nodetypes="ccccccccccccccccccccccccccccccccccccccccccccccccccccccccccccccc" fill="#D3D3D3" stroke="#FFFFFF" stroke-width="0.75" d="
				M380.343,320.821l-16.684-1.272l-0.881,10.951l20.466,1.157l32.056,1.304l-2.335,24.419l-0.457,17.833l0.229,1.6l4.344,3.658
				l2.058,1.143l0.687-0.229l0.686-2.057l1.371,1.828h2.059v-1.371l2.743,1.371l-0.457,3.887l4.115,0.229l2.515,1.144l4.115,0.686
				l2.515,1.829l2.286-2.058l3.43,0.687l2.515,3.429h0.914v2.286l2.286,0.686l2.287-2.286l1.828,0.687h2.516l0.914,2.515
				l6.301,2.079l1.372-0.687l1.829-4.114h1.143l1.144,2.057l4.115,0.686l3.658,1.372l2.972,0.915l1.829-0.915l0.686-2.515h4.344
				l2.058,0.914l2.744-2.057h1.143l0.687,1.6h4.115l1.6-2.057l1.829,0.457l2.058,2.515l3.201,1.829l3.2,0.914l1.941,1.119
				l-0.389-37.217l-1.372-10.975l-0.161-8.872l-1.439-6.538l-0.778-7.18l-0.068-3.816l-12.137,0.319l-46.41-0.457l-45.038-2.058
				L380.343,320.821z"/>
			
				<path id="TX" sodipodi:nodetypes="ccccccccccccccccccccccccccccccccccccccccccccccccccccccccccccccccccccccccccccccccccccccccccccccccccccccccccccccccccccccccccccccccccccccccccccccccccccccccccccccccccccccccccccccccccccccccccc" fill="#D3D3D3" stroke="#FFFFFF" stroke-width="0.75" d="
				M361.464,330.574l22.691,1.086l31.093,1.143l-2.335,23.455l-0.297,18.154l0.068,2.082l4.344,3.818l1.986,1.447l1.185-0.561
				l0.373-1.817l1.141,1.804l2.111,0.044l-0.002-1.447l1.67,0.968l1.139,0.408l-0.359,3.968l4.088,0.094l2.926,1.197l3.954,0.525
				l2.382,2.079l2.124-2.076l3.725,0.615l2.221,3.225l1.075,0.32l-0.16,1.966l2.214,0.792l2.33-2.055l2.133,0.615l2.229,0.035
				l0.933,2.436l6.328,2.114l1.593-0.767l1.49-4.178h0.341l0.906,0.082l1.229,2.068l3.931,0.665l3.337,1.123l3.425,1.195
				l1.841-0.975l0.714-2.515l4.453,0.044l1.809,0.931l2.8-2.106l1.104,0.044l0.851,1.605h4.055l1.52-2.029l1.867,0.408l1.946,2.402
				l3.521,2.045l2.858,0.81l1.514,0.8l2.446,1.997l3.043-1.327l2.691,1.139l0.564,6.105l-0.04,9.702l0.686,9.534l0.702,3.605
				l2.676,4.42l0.897,4.95l4.217,5.538l0.195,3.146l0.747,0.785l-0.73,8.381l-2.872,5.006l1.533,2.153l-0.63,2.338l-0.67,7.404
				l-1.505,3.338l0.295,3.503l-5.664,1.585l-9.861,4.526l-0.971,1.939l-2.586,1.94l-2.102,1.455l-1.294,0.808l-5.658,5.335
				l-2.748,2.102l-5.335,3.233l-5.657,2.425l-6.305,3.396l-1.778,1.454l-5.82,3.557l-3.395,0.646l-3.88,5.497l-4.042,0.323
				l-0.97,1.939l2.264,1.94l-1.455,5.496l-1.294,4.526l-1.131,3.88l-0.809,4.526l0.809,2.426l1.778,6.951l0.97,6.143l1.778,2.749
				l-0.971,1.454l-3.071,1.94l-5.658-3.88l-5.496-1.132l-1.293,0.485l-3.233-0.646l-4.203-3.072l-5.174-1.131l-7.598-3.396
				l-2.102-3.88l-1.293-6.466l-3.233-1.94l-0.646-2.263l0.646-0.647l0.323-3.395l-1.293-0.646l-0.646-0.97l1.293-4.365l-1.617-2.263
				l-3.232-1.294l-3.396-4.364l-3.557-6.629l-4.203-2.586l0.162-1.94l-5.335-12.286l-0.809-4.203l-1.778-1.939l-0.161-1.455
				l-5.981-5.335l-2.587-3.071v-1.132l-2.586-2.102l-6.79-1.132l-7.437-0.646l-3.071-2.264l-4.526,1.778l-3.557,1.455l-2.264,3.233
				l-0.97,3.719l-4.365,6.143l-2.425,2.425l-2.586-0.97l-1.778-1.132l-1.94-0.646l-3.88-2.264v-0.646l-1.778-1.939l-5.173-2.102
				l-7.437-7.76l-2.263-4.688v-8.083l-3.233-6.466l-0.485-2.749l-1.616-0.97l-1.132-2.102l-5.012-2.102l-1.293-1.616l-7.113-7.922
				l-1.293-3.233l-4.688-2.263l-1.455-4.365l-2.586-2.91l-1.94-0.484l-0.649-4.678l8.001,0.686l29.035,2.744l29.035,1.6
				l2.233-19.462l3.887-55.555l1.601-18.747l1.371,0.028 M461.693,560.208l-0.565-7.113l-2.748-7.194l-0.566-7.032l1.536-8.244
				l3.314-6.871l3.476-5.415l3.152-3.557l0.646,0.242l-4.769,6.628l-4.365,6.548l-2.021,6.628L458.461,540l0.889,6.144l2.587,7.193
				l0.484,5.174l0.162,1.454L461.693,560.208z"/>
			<path id="NM" sodipodi:nodetypes="ccccccccccccccc" fill="#D3D3D3" stroke="#FFFFFF" stroke-width="0.75" d="M288.152,424.013
				l-0.775-4.748l8.644,0.525l30.171,2.946l27.269,1.689l2.215-18.707l3.857-55.876l1.738-19.39l1.571,0.129l0.825-11.163
				l-104.004-10.636l-17.497,120.435l15.46,1.989l1.293-10.023L288.152,424.013z"/>
			<path id="KS" sodipodi:nodetypes="ccccccccccccccccccccc" fill="#D3D3D3" stroke="#FFFFFF" stroke-width="0.75" d="
				M507.881,324.381l-12.618,0.204l-46.09-0.458l-44.557-2.057l-24.63-1.258l3.894-64.595l22.083,0.675l40.289,0.841l44.302,0.988
				h5.096l2.185,2.162l2.018-0.021l1.64,1.012l-0.062,3.009l-1.828,1.726l-0.333,2.232l1.844,3.402l2.952,3.195l2.327,1.614
				l1.301,11.241L507.881,324.381z"/>
			
				<path id="NE" sodipodi:nodetypes="ccccccccccccccccccccccccccccccccccccc" fill="#D3D3D3" stroke="#FFFFFF" stroke-width="0.75" d="
				M486.098,240.701l3.23,7.02l-0.128,2.302l3.459,5.494l2.719,3.152h-5.049l-43.482-0.938l-40.787-0.89l-22.252-0.784l1.072-21.328
				l-32.318-2.92l4.344-44.01l15.547,1.029l20.118,1.143l17.833,1.143l23.776,1.144l10.746-0.458l2.057,2.286l4.802,2.972
				l1.143,0.915l4.344-1.372l3.887-0.458l2.744-0.229l1.829,1.372l4.057,1.601l2.973,1.6l0.457,1.601l0.914,2.058h1.829l0.798,0.046
				l0.895,4.682l2.92,8.468l0.573,3.757l2.523,3.774l0.569,5.114l1.607,4.241L486.098,240.701z"/>
			
				<path id="SD" sodipodi:nodetypes="ccccccccccccccccccccccccccccccccccccc" fill="#D3D3D3" stroke="#FFFFFF" stroke-width="0.75" d="
				M476.447,204.024l-0.048-0.581l-2.896-4.846l1.86-4.712l1.492-5.887l-2.781-2.08l-0.386-2.743l0.793-2.555l3.188,0.015
				l-0.123-5.006l-0.334-30.174l-0.617-3.768l-4.072-3.331l-0.983-1.677l-0.062-1.609l2.022-1.529l1.532-1.666l0.245-2.657
				l-58.257-1.6l-54.8-3.449l-5.325,63.691l14.591,0.904l19.949,1.206l17.743,0.928l23.777,1.304l11.982-0.425l1.966,2.246
				l5.195,3.253l0.764,0.723l4.541-1.453l6.541-0.615l1.675,1.336l4.205,1.596l2.945,1.636l0.398,1.484l1.04,2.241L476.447,204.024z
				"/>
			<path id="ND" sodipodi:nodetypes="ccccccccccccccccc" fill="#D3D3D3" stroke="#FFFFFF" stroke-width="0.75" d="M475.306,128.918
				l-0.615-8.434l-1.677-6.816l-1.892-13.024l-0.457-10.987l-1.74-3.077l-1.756-5.194l0.031-10.444l0.623-3.824l-1.834-5.468
				l-28.643-0.564l-18.591-0.646l-26.513-1.293l-22.946-2.134l-6.993,67.177l54.933,3.344L475.306,128.918z"/>
			<path id="WY" sodipodi:nodetypes="ccccc" fill="#D3D3D3" stroke="#FFFFFF" stroke-width="0.75" d="M360.377,143.276
				l-106.743-13.457l-14.083,88.458l113.265,13.585L360.377,143.276z"/>
			
				<path id="MT" sodipodi:nodetypes="ccccccccccccccccccccccccccccccccccccccccccccccc" fill="#D3D3D3" stroke="#FFFFFF" stroke-width="0.75" d="
				M369.21,56.969l-30.675-2.808l-29.261-3.556l-29.26-4.042l-32.332-5.335l-18.429-3.395l-32.724-6.933l-4.479,21.348l3.43,7.544
				l-1.372,4.572l1.829,4.573l3.201,1.372l4.621,10.77l2.695,3.176l0.458,1.143l3.429,1.144l0.457,2.058l-7.087,17.604v2.515
				l2.515,3.201h0.915l4.801-2.972l0.686-1.143l1.601,0.686l-0.229,5.258l2.743,12.574l2.972,2.515l0.915,0.686l1.829,2.286
				L222,135.238l0.686,3.43l1.143,0.914l2.286-2.286h2.744l3.201,1.601l2.515-0.915h4.115l3.658,1.6l2.743-0.457l0.458-2.972
				l2.972-0.686l1.372,1.372l0.457,3.201l1.426,0.834l1.887-11.035l106.746,13.429L369.21,56.969z"/>
			<path id="CO" sodipodi:nodetypes="ccccc" fill="#D3D3D3" stroke="#FFFFFF" stroke-width="0.75" d="M380.032,320.965l4.903-86.325
				l-113.389-12.644l-12.213,87.939L380.032,320.965z"/>
			
				<path id="ID" sodipodi:nodetypes="ccccccccccccccccccccccccccccccccccccccccccccccccccccccccccc" fill="#D3D3D3" stroke="#FFFFFF" stroke-width="0.75" d="
				M148.479,176.484l8.771-35.221l1.372-4.229l2.515-5.944l-1.257-2.286l-2.515,0.114l-0.8-1.029l0.457-1.143l0.343-3.086
				l4.458-5.487l1.829-0.458l1.144-1.143l0.571-3.201l0.915-0.686l3.887-5.83l3.886-4.344l0.229-3.772l-3.43-2.629l-1.535-4.401
				l13.625-63.342l13.518,2.528l-4.408,21.383l3.56,7.485l-1.581,4.661l1.97,4.642l3.138,1.255l3.835,9.557l3.513,4.437l0.507,1.143
				l3.341,1.144l0.369,2.097l-6.971,17.376l-0.165,2.566l2.631,3.321l0.905-0.049l4.911-3.025l0.678-1.095l1.562,0.659l-0.278,5.354
				l2.739,12.583l3.918,3.178l1.681,2.166l-0.717,4.084l1.066,2.807l1.062,1.091l2.479-2.352l2.848,0.049l2.919,1.335l2.78-0.682
				l3.794-0.16l3.979,1.6l2.744-0.297l0.497-3.037l2.933-0.765l1.26,1.516l0.441,2.945l1.424,1.213l-8.386,53.609
				C243.438,194.688,155.472,177.988,148.479,176.484z"/>
			<path id="UT" sodipodi:nodetypes="cccccccccc" fill="#D3D3D3" stroke="#FFFFFF" stroke-width="0.75" d="M259.499,310.105
				l-83.749-11.873l20.587-112.541l46.78,8.745l-1.485,10.63l-2.312,13.173l7.808,0.928l16.407,1.805l8.211,0.856L259.499,310.105z"
				/>
			
				<path id="AZ" sodipodi:nodetypes="cccccccccccccccccccccccccccccccccccccccccccccc" fill="#D3D3D3" stroke="#FFFFFF" stroke-width="0.75" d="
				M144.911,382.629l-2.627,2.158l-0.323,1.455l0.485,0.971l18.915,10.669l12.125,7.598l14.711,8.568l16.812,10.023l12.286,2.425
				l24.951,2.705l17.256-119.127l-83.736-11.918l-3.092,16.412l-1.606,0.016l-1.714,2.629l-2.515-0.113l-1.257-2.744l-2.743-0.343
				l-0.915-1.144h-0.915l-0.915,0.572l-1.943,1.028l-0.114,6.974l-0.229,1.715l-0.572,12.574l-1.486,2.172l-0.572,3.314l2.744,4.916
				l1.257,5.829l0.8,1.028l1.029,0.572l-0.114,2.286l-1.601,1.372l-3.429,1.715l-1.943,1.943l-1.486,3.657l-0.572,4.915
				l-2.858,2.744l-2.058,0.686l0.136,0.83l-0.457,1.715l0.457,0.8l3.658,0.571l-0.572,2.744l-1.486,2.172L144.911,382.629z"/>
			<path id="NV" sodipodi:nodetypes="cccccccccccccccccc" fill="#D3D3D3" stroke="#FFFFFF" stroke-width="0.75" d="M196.393,185.576
				l-23.639,128.823l-1.833,0.35l-1.573,2.406l-2.373,0.01l-1.472-2.743l-2.619-0.378l-0.771-1.108l-1.038-0.054l-2.778,1.645
				l-0.31,6.785l-0.362,5.777l-0.349,8.593l-1.447,2.089l-2.438-1.074l-69.08-104.201l18.989-67.584L196.393,185.576z"/>
			
				<path id="OR" sodipodi:nodetypes="ccccccccccccccccccccccccccccccccccccccccccccccccccc" fill="#D3D3D3" stroke="#FFFFFF" stroke-width="0.75" d="
				M148.722,175.531l8.85-34.801l1.051-4.229l2.354-5.623l-0.615-1.163l-2.515-0.046l-1.281-1.67l0.457-1.464l0.503-3.247
				l4.458-5.487l1.829-1.1l1.143-1.143l1.486-3.566l4.047-5.669l3.565-3.862l0.229-3.451l-3.269-2.469l-1.784-4.643l-12.664-3.612
				l-15.089-3.543l-15.432,0.114l-0.458-1.372l-5.487,2.058l-4.458-0.572l-2.4-1.6l-1.258,0.686l-4.687-0.229l-1.715-1.372
				l-5.258-2.058l-0.8,0.114l-4.344-1.486l-1.943,1.829l-6.173-0.343l-5.944-4.115l0.686-0.8l0.229-7.773l-2.287-3.887l-4.115-0.572
				l-0.686-2.515l-2.354-0.467l-5.798,2.059l-2.263,6.466L61.3,78.932l-3.233,6.466l-5.011,14.064l-6.466,13.58l-8.083,12.61
				l-1.94,2.91l-0.809,8.568l0.386,12.08L148.722,175.531z"/>
			
				<path id="WA" sodipodi:nodetypes="cccccccccccccccccccccccccccccccccccccccccccccccccccccccccccccccccccccccccccccccccccccscccccc" fill="#D3D3D3" stroke="#FFFFFF" stroke-width="0.75" d="
				M102.073,7.612l4.365,1.455l9.7,2.748l8.568,1.94l20.046,5.658l22.956,5.658l15.223,3.207l-13.632,63.586l-12.445-3.525
				l-15.508-3.571l-15.229,0.033l-0.456-1.345l-5.599,2.179l-4.595-0.736l-2.147-1.584l-1.313,0.658l-4.735-0.14l-1.699-1.35
				l-5.263-2.112l-0.735,0.146l-4.389-1.524l-1.893,1.817l-6.266-0.298L81.1,76.386l0.779-0.933L82,67.776l-2.282-3.84l-4.115-0.607
				l-0.678-2.511l-2.275-0.457l-3.555,1.23l-2.264-3.219l0.324-2.91l2.748-0.323l1.617-4.042l-2.587-1.132l0.162-3.718l4.365-0.646
				l-2.749-2.749l-1.455-7.113l0.646-2.91v-7.922l-1.778-3.233l2.263-9.376l2.102,0.485l2.425,2.91l2.749,2.586l3.233,1.94
				l4.527,2.102l3.071,0.647l2.91,1.455l3.395,0.97l2.263-0.162v-2.425l1.293-1.131l2.102-1.293l0.323,1.132l0.324,1.778
				l-2.264,0.485l-0.323,2.102l1.778,1.455l1.132,2.425l0.646,1.94l1.455-0.162l0.162-1.293l-0.97-1.293l-0.485-3.233l0.808-1.778
				l-0.646-1.455v-2.263l1.778-3.557l-1.132-2.586l-2.425-4.85l0.323-0.809L102.073,7.612z M92.617,13.591l2.021-0.162l0.485,1.374
				l1.536-1.617h2.344l0.809,1.536l-1.536,1.698l0.646,0.808l-0.728,2.021l-1.374,0.404c0,0-0.889,0.081-0.889-0.242
				s1.455-2.586,1.455-2.586l-1.698-0.566l-0.323,1.455l-0.728,0.647l-1.536-2.263L92.617,13.591z"/>
			
				<path id="CA" sodipodi:nodetypes="ccccccccccccccccccccccccccccccccccccccccccccccccccccccccccccccccccccccccccccccccccccccccccccccccccccccccccccccccccccccccccccccccscc" fill="#D3D3D3" stroke="#FFFFFF" stroke-width="0.75" d="
				M144.694,382.198l3.94-0.489l1.486-2.011l0.544-2.941l-3.551-0.59l-0.514-0.669l0.478-2.031l-0.16-0.59l1.923-0.62l3.042-2.833
				l0.582-4.994l1.38-3.402l1.943-2.166l3.519-1.59l1.654-1.605l0.069-2.108l-0.994-0.58l-1.023-1.073l-1.155-5.848l-2.685-4.83
				l0.566-3.506l-2.42-1.029L84.258,232.514l18.902-67.602l-67.08-15.698l-1.507,4.733l-0.162,7.437l-5.173,11.801l-3.072,2.586
				l-0.323,1.132l-1.778,0.808l-1.455,4.203l-0.809,3.233l2.749,4.203l1.616,4.203l1.132,3.557l-0.323,6.466l-1.778,3.071
				l-0.646,5.82l-0.97,3.718l1.778,3.88l2.748,4.526l2.264,4.85l1.293,4.042l-0.323,3.233l-0.323,0.485v2.102l5.658,6.305
				l-0.485,2.425l-0.646,2.263l-0.646,1.94l0.162,8.245l2.102,3.718l1.94,2.586l2.748,0.485l0.97,2.748l-1.132,3.557l-2.102,1.617
				h-1.131l-0.809,3.88l0.485,2.91l3.233,4.365l1.617,5.335l1.455,4.688l1.293,3.071l3.395,5.82l1.455,2.586l0.485,2.91l1.617,0.971
				v2.424l-0.809,1.94l-1.778,7.113l-0.485,1.94l2.425,2.748l4.203,0.484l4.527,1.778l3.88,2.102h2.91l2.91,3.071l2.586,4.85
				l1.131,2.264l3.88,2.102l4.85,0.809l1.455,2.102l0.647,3.232l-1.455,0.647l0.323,0.97l3.233,0.809l2.748,0.162l3.16-1.688
				l3.88,4.203l0.808,2.264l2.586,4.203l0.323,3.232v9.377l0.485,1.778l10.023,1.454l19.723,2.749L144.694,382.198z M56.559,338.481
				l1.293,1.536l-0.162,1.293l-3.233-0.081l-0.566-1.212l-0.646-1.455L56.559,338.481z M58.499,338.481l1.212-0.646l3.557,2.102
				l3.072,1.212l-0.889,0.646l-4.527-0.242l-1.616-1.616L58.499,338.481z M79.192,358.285l1.778,2.344l0.808,0.971l1.536,0.565
				l0.566-1.455l-0.97-1.778l-2.667-2.021l-1.051,0.162V358.285z M77.737,366.934l1.778,3.152l1.212,1.94l-1.455,0.242l-1.293-1.212
				c0,0-0.728-1.455-0.728-1.859s0-2.183,0-2.183L77.737,366.934z"/>
		</g>
		
			<circle clip-path="url(#SVGID_2_)" fill="none" stroke="#000000" stroke-width="3" stroke-miterlimit="10" cx="846.907" cy="170.854" r="152.077"/>
	</g>
	<text transform="matrix(1 0 0 1 864.2686 227.1855)"><tspan x="0" y="0" font-family="'Palatino-Roman'" font-size="16.5451">CUWiP-NYC</tspan><tspan x="32.444" y="19.854" font-family="'Palatino-Roman'" font-size="16.5451">2018</tspan></text>
	<g>
		<g>
			<path fill="none" stroke="#F7931E" stroke-width="4" stroke-miterlimit="10" d="M907.304,201.367
				c-6.229-9.865-21.372-26.529-47.548-13.308"/>
			<g>
				<circle fill="#F7931E" cx="907.099" cy="201.047" r="7.519"/>
			</g>
			<g>
				<polygon fill="#F7931E" points="847.85,195.667 860.491,178.281 860.755,187.68 869.048,192.107 				"/>
			</g>
		</g>
	</g>
</g>
<g id="Layer_2" display="none">
	
		<image display="inline" overflow="visible" opacity="0.5" width="1812" height="1400" xlink:href="../../../Desktop/Screen Shot 2017-08-04 at 2.16.11 PM.png"  transform="matrix(0.2118 0 0 0.2118 621.3516 49.0005)">
	</image>
</g>
</svg>
