<?xml version="1.0" encoding="utf-8"?>
<!-- Generator: Adobe Illustrator 16.0.0, SVG Export Plug-In . SVG Version: 6.00 Build 0)  -->
<!DOCTYPE svg PUBLIC "-//W3C//DTD SVG 1.1//EN" "http://www.w3.org/Graphics/SVG/1.1/DTD/svg11.dtd">
<svg version="1.1" id="Layer_1" xmlns="http://www.w3.org/2000/svg" xmlns:xlink="http://www.w3.org/1999/xlink" x="0px" y="0px"
	 width="535.9941px" height="535.9941px" viewBox="0 0 535.9941 535.9941" enable-background="new 0 0 535.9941 535.9941"
	 xml:space="preserve">
<linearGradient id="SVGID_1_" gradientUnits="userSpaceOnUse" x1="0" y1="267.9971" x2="535.9941" y2="267.9971">
	<stop  offset="0" style="stop-color:#233F8A"/>
	<stop  offset="0.5061" style="stop-color:#71C1EC"/>
	<stop  offset="0.6052" style="stop-color:#74B2E2"/>
	<stop  offset="0.7963" style="stop-color:#788BC6"/>
	<stop  offset="0.9975" style="stop-color:#7760A9"/>
</linearGradient>
<circle fill="url(#SVGID_1_)" cx="267.9971" cy="267.9971" r="267.9971"/>
<g>
	<g>
		<path fill="#FFFFFF" d="M272.7451,92.2891c-2.1191-3.7114-7.1553-8.0835-19.0815-8.0835
			c-16.9614,0-41.7407,8.4805-66.3882,22.7915c-2.1201,1.1938-4.373,2.5186-6.3599,3.8438
			c0.9268-9.4082,2.5166-18.1548,4.6372-25.8403c4.373-16.0337,10.8662-25.8389,16.8291-25.8389
			c5.6982,0,11.9263,9.2749,16.2983,24.2495c0.5303,1.9873,2.6504,3.0474,4.6382,2.5171c1.9878-0.5298,3.0479-2.6504,2.5186-4.6382
			c-5.6987-18.9492-14.0469-29.5498-23.5874-29.5498c-9.939,0-18.4194,11.1313-23.9849,31.4058
			c-2.6499,9.8052-4.5054,20.9365-5.4326,32.9946c-12.1914,8.2158-22.6597,17.2261-30.2134,25.8398
			c-11.5278,13.1182-15.2378,24.1177-10.8657,31.8022c2.1201,3.7104,7.1567,8.0835,19.0815,8.0835
			c7.4214,0,16.2993-1.5903,25.9727-4.6377c0.7944,3.1802,1.5898,6.228,2.5171,9.1436
			c5.5664,18.0215,13.7812,27.9595,22.9253,27.9595c9.6733,0,18.021-10.7334,23.7192-30.3452
			c0.5298-1.9883-0.5298-4.1074-2.5181-4.6382c-1.9873-0.5298-4.1079,0.5308-4.6382,2.5181
			c-4.3721,15.3711-10.7324,24.9121-16.4307,24.9121c-5.4331,0-11.5283-8.7451-15.9014-22.6597
			c-0.9277-2.9146-1.7231-6.0957-2.5176-9.4072c5.9629-2.1211,12.0576-4.771,18.2866-7.8184
			c17.8887,8.6128,37.2354,14.7085,51.4141,14.7085c8.8774,0,15.6372-2.3857,18.9487-7.9507
			c4.2412-7.2891,0.9287-17.7568-9.2754-30.0806c-2.916-3.4453-6.3604-7.0229-10.2031-10.6006
			C269.3008,118.1284,278.707,102.7568,272.7451,92.2891z M150.9673,174.313c-6.4932,0-10.9985-1.5898-12.5889-4.3726
			c-2.5176-4.5059,1.1934-13.1191,9.939-23.0571c6.228-7.0234,14.4438-14.311,24.1172-21.3345
			c-0.1323,2.5181-0.1323,5.0347-0.1323,7.5537c0,12.853,1.0596,25.4424,3.0469,36.7051
			C166.0737,172.7231,157.7256,174.313,150.9673,174.313z M257.6392,148.4736c7.8169,9.2759,10.9985,17.3584,8.6128,21.4668
			c-4.1084,7.1553-25.707,6.0952-55.5229-7.2886c2.1211-1.1929,4.3735-2.3853,6.4941-3.5771
			c10.7329-6.228,21.2017-13.5161,30.2129-21.0698C251.4111,141.583,254.7231,145.0283,257.6392,148.4736z M247.5684,128.1992
			c-7.2881-6.0957-15.6367-12.0586-24.6475-17.7563c-1.7227-1.0601-4.1084-0.5303-5.168,1.1919
			c-1.0601,1.7231-0.5298,4.1084,1.1924,5.1685c8.3481,5.168,16.1665,10.7339,22.9248,16.2993
			c-8.2158,6.7573-17.7568,13.3828-28.3574,19.4785c-10.4683,6.0957-21.0693,10.999-31.0078,14.7095
			c-1.855-10.4692-2.7817-22.2622-2.7817-34.188c0-4.3735,0.1318-8.6138,0.3975-12.854c3.5776-2.2529,7.1548-4.5054,10.8652-6.6255
			c23.1895-13.3833,47.1733-21.7319,62.6777-21.7319c6.4927,0,10.9976,1.5903,12.5884,4.373
			c2.5176,4.5054-1.1914,13.1187-9.9375,23.0566C253.7964,122.2363,250.748,125.2847,247.5684,128.1992z"/>
		<path fill="#FFFFFF" d="M169.3857,86.856c-19.479-4.77-32.729-2.7827-37.5,5.4331c-4.373,7.5532-0.7949,18.2856,10.2031,31.1392
			c0.7954,0.9282,1.855,1.4585,2.9155,1.4585c0.9272,0,1.7231-0.2651,2.3853-0.9277c1.5903-1.3252,1.7227-3.7104,0.3979-5.3003
			c-8.481-9.8052-11.9268-18.1543-9.4092-22.5269c2.9155-4.9033,14.0469-5.6978,29.2852-1.9883
			c1.9878,0.5308,3.9756-0.7949,4.5063-2.7822C172.6992,89.3735,171.374,87.3857,169.3857,86.856z"/>
		<circle fill="#FFFFFF" cx="202.2495" cy="133.1018" r="9.6736"/>
	</g>
	<g>
		<circle fill="#FFFFFF" cx="276.3232" cy="449.2734" r="0"/>
		<path fill="#FFFFFF" d="M306.4023,406.0742c0.7959-0.1328,1.7227-0.1328,2.6514-0.1328h-0.1338
			C308.125,405.9414,307.1982,405.9414,306.4023,406.0742z"/>
		<path fill="#FFFFFF" d="M276.3232,449.2734L276.3232,449.2734L276.3232,449.2734L276.3232,449.2734z"/>
		<path fill="#FFFFFF" d="M276.4541,449.4053L276.4541,449.4053L276.4541,449.4053z"/>
		<path fill="#FFFFFF" d="M276.3232,449.2734L276.3232,449.2734C276.3232,449.2734,276.3232,449.4053,276.3232,449.2734
			C276.4541,449.4053,276.4541,449.4053,276.3232,449.2734C276.3232,449.4053,276.3232,449.2734,276.3232,449.2734z"/>
		<path fill="#FFFFFF" d="M292.8857,359.9609L292.8857,359.9609c0.2656-0.1318,0.5312-0.1318,0.6631-0.2656
			C293.417,359.8291,293.1514,359.8291,292.8857,359.9609z"/>
		<path fill="#FFFFFF" d="M304.8135,357.1787c-0.3984,0-0.6621,0.1318-0.9287,0.1318
			C304.1514,357.3105,304.5479,357.1787,304.8135,357.1787z"/>
		<path fill="#FFFFFF" d="M314.0889,356.9131c-0.3975,0-0.6621,0-0.9268,0C313.4268,356.9131,313.6914,357.0459,314.0889,356.9131z"
			/>
		<polygon fill="#FFFFFF" points="306.6689,348.6973 306.6689,348.6973 316.209,324.0508 		"/>
		<path fill="#FFFFFF" d="M325.6172,359.0332c-0.2656-0.1338-0.5303-0.1338-0.7959-0.2656
			C325.0869,358.8994,325.3516,358.8994,325.6172,359.0332L325.6172,359.0332z"/>
		<path fill="#FFFFFF" d="M287.9834,353.0703l-10.0713-7.6865L287.9834,353.0703z"/>
		<path fill="#FFFFFF" d="M285.4668,363.6719l3.8408,8.2158L285.4668,363.6719z"/>
		<path fill="#FFFFFF" d="M285.4668,363.5391c-0.2666,0.1328-0.3994,0.2646-0.6631,0.3975
			C285.0674,363.9365,285.2002,363.6719,285.4668,363.5391z"/>
		<path fill="#FFFFFF" d="M268.7695,383.6807c0.2656-0.6621,0.5293-1.458,0.7949-2.1182
			C269.2988,382.2227,269.0352,383.0186,268.7695,383.6807z"/>
		<path fill="#FFFFFF" d="M268.3721,385.1387c-0.1318,0.2646-0.2656,0.3965-0.2656,0.6621
			C268.2402,385.5352,268.2402,385.4033,268.3721,385.1387z"/>
		<path fill="#FFFFFF" d="M276.5879,370.8262c0.1328-0.1318,0.3955-0.3975,0.5293-0.5293
			C276.8535,370.4287,276.7207,370.6943,276.5879,370.8262z"/>
		<polygon fill="#FFFFFF" points="304.8135,357.1787 304.8135,357.1787 305.4756,365.791 		"/>
		<path fill="#FFFFFF" d="M347.7461,374.5371l-2.3848,2.3848L347.7461,374.5371z"/>
		<path fill="#FFFFFF" d="M348.2754,375.332c-0.1309-0.2637-0.2637-0.5303-0.5293-0.7949
			C347.8779,374.8018,348.1445,375.0684,348.2754,375.332z"/>
		<path fill="#FFFFFF" d="M309.0537,405.9414h-0.1338H309.0537L309.0537,405.9414z"/>
		<path fill="#FFFFFF" d="M302.4268,407.2676L302.4268,407.2676h0.1328H302.4268L302.4268,407.2676z"/>
		<path fill="#FFFFFF" d="M338.2061,372.418l2.915-2.917L338.2061,372.418z"/>
		<path fill="#FFFFFF" d="M342.3135,368.3096c-0.1211-0.0605-0.209-0.1514-0.2881-0.2422
			C342.1338,368.1602,342.2422,368.2373,342.3135,368.3096z"/>
		<path fill="#FFFFFF" d="M342.0254,368.0674c-0.0908-0.0791-0.1816-0.167-0.2422-0.2881
			C341.8555,367.8506,341.9326,367.959,342.0254,368.0674z"/>
		<path fill="#FFFFFF" d="M353.4443,386.8613c-0.1328-0.3975-0.1328-0.6631-0.2656-1.0605
			C353.1787,386.1982,353.3115,386.4639,353.4443,386.8613z"/>
		<path fill="#FFFFFF" d="M322.834,366.0576l1.8555-4.7725L322.834,366.0576z"/>
		<path fill="#FFFFFF" d="M333.9648,362.4775c-0.1318-0.1309-0.3965-0.2646-0.6611-0.3955
			C333.5684,362.2129,333.7002,362.3467,333.9648,362.4775z"/>
		<path fill="#FFFFFF" d="M275.792,444.6357c0.1318,0,0.2656,0,0.2656,0C276.0576,444.5029,275.9238,444.5029,275.792,444.6357z"/>
		<path fill="#FFFFFF" d="M349.3379,419.1934L349.3379,419.1934c0-0.3984,0-0.7939,0-1.1914
			C349.3379,418.3994,349.3379,418.7949,349.3379,419.1934z"/>
		<path fill="#FFFFFF" d="M276.0576,444.6357C276.1895,444.6357,276.1895,444.6357,276.0576,444.6357
			C276.1895,444.6357,276.1895,444.6357,276.0576,444.6357L276.0576,444.6357z"/>
		<circle fill="#FFFFFF" cx="276.3232" cy="449.2734" r="0"/>
		<circle fill="#FFFFFF" cx="276.4541" cy="449.4053" r="0"/>
		<circle fill="#FFFFFF" cx="276.3232" cy="449.2734" r="0"/>
		<polygon fill="#FFFFFF" points="261.2168,380.3672 248.6284,370.2969 248.6284,370.2969 		"/>
		<polygon fill="#FFFFFF" points="273.6719,390.3066 273.6719,390.3066 271.0225,388.1855 		"/>
		<path fill="#FFFFFF" d="M271.6846,377.585c-0.1318,0.1328-0.2637,0.3975-0.2637,0.5293
			C271.5527,377.9824,271.5527,377.7178,271.6846,377.585z"/>
		<path fill="#FFFFFF" d="M220.1382,448.2129c-0.7954,0.3975-1.458,0.6621-2.2524,0.9277
			C218.6802,448.875,219.4756,448.6104,220.1382,448.2129z"/>
		<path fill="#FFFFFF" d="M296.7305,368.1768L296.7305,368.1768c0.5293-0.1318,0.9268-0.2656,1.457-0.5293
			C297.6572,367.9111,297.2598,368.0449,296.7305,368.1768L296.7305,368.1768z"/>
		<path fill="#FFFFFF" d="M305.4756,365.9238c-0.5293,0-1.0605,0.1338-1.458,0.2656
			C304.5479,366.0576,305.0781,365.9238,305.4756,365.9238z"/>
		<path fill="#FFFFFF" d="M292.8857,359.9609L292.8857,359.9609L292.8857,359.9609L292.8857,359.9609z"/>
		<path fill="#FFFFFF" d="M304.8135,357.1787L304.8135,357.1787L304.8135,357.1787L304.8135,357.1787z"/>
		<path fill="#FFFFFF" d="M322.9668,366.0576c-0.2646,0-0.5303-0.1338-0.7949-0.1338
			C322.4365,366.0576,322.5693,366.0576,322.9668,366.0576z"/>
		<path fill="#FFFFFF" d="M313.6914,365.1289l-0.6621-8.083l0,0l0,0L313.6914,365.1289c0.2646,0,0.3975,0,0.6631,0
			C314.2207,365.1289,313.9561,365.1289,313.6914,365.1289L313.6914,365.1289z"/>
		<path fill="#FFFFFF" d="M325.6172,359.0332l-0.9287,2.252L325.6172,359.0332L325.6172,359.0332L325.6172,359.0332z"/>
		<path fill="#FFFFFF" d="M288.249,372.5508c0.3965-0.2656,0.6621-0.3984,1.0586-0.6631l0,0l0,0
			C288.9111,372.1523,288.6455,372.2852,288.249,372.5508z"/>
		<path fill="#FFFFFF" d="M276.5879,370.9609l6.8896,5.2998l-6.8896-5.4346C276.5879,370.9609,276.5879,370.9609,276.5879,370.9609z
			"/>
		<path fill="#FFFFFF" d="M285.4668,363.5391L285.4668,363.5391L285.4668,363.5391L285.4668,363.5391z"/>
		<path fill="#FFFFFF" d="M271.6846,377.585l6.2275,4.9043l0,0c-0.1309,0.1309-0.2637,0.3965-0.3975,0.5293
			c0.1338-0.1328,0.2666-0.3984,0.3975-0.5293L271.6846,377.585L271.6846,377.585L271.6846,377.585z"/>
		<path fill="#FFFFFF" d="M273.9375,389.6436c-0.1318,0.2656-0.1318,0.3975-0.2656,0.6631
			C273.8057,390.1748,273.9375,389.9092,273.9375,389.6436z"/>
		<path fill="#FFFFFF" d="M271.0225,388.1855l-2.916-2.3848l0,0l0,0L271.0225,388.1855z"/>
		<path fill="#FFFFFF" d="M287.9834,353.0703c-0.2646,0.1338-0.5293,0.2666-0.7949,0.3984
			C287.4541,353.3369,287.7188,353.2041,287.9834,353.0703L287.9834,353.0703L287.9834,353.0703z"/>
		<path fill="#FFFFFF" d="M275.9775,360.2256c-0.1064,0.0811-0.2119,0.1592-0.3174,0.2656l-4.4395-11.7275l4.4395,11.8594
			C275.7656,360.4639,275.8711,360.3418,275.9775,360.2256z"/>
		<path fill="#FFFFFF" d="M275.9775,360.2256c0.1592-0.1211,0.3174-0.2383,0.4766-0.3965
			C276.2949,359.9082,276.1367,360.0508,275.9775,360.2256z"/>
		<polygon fill="#FFFFFF" points="266.7812,336.9053 266.8501,337.0898 277.9121,345.5186 		"/>
		<polygon fill="#FFFFFF" points="266.7812,337.0371 271.2207,348.7637 266.8501,337.0898 		"/>
		<path fill="#FFFFFF" d="M261.8799,379.042c-0.2656,0.3975-0.5303,0.7949-0.6631,1.3252
			C261.4814,379.9697,261.6143,379.4395,261.8799,379.042z"/>
		<path fill="#FFFFFF" d="M248.6284,370.2969L248.6284,370.2969L248.6284,370.2969
			C248.4961,370.2969,248.4961,370.2969,248.6284,370.2969z"/>
		<path fill="#FFFFFF" d="M265.0605,372.418c-0.2666,0.3965-0.3994,0.7939-0.665,1.1924
			C264.6611,373.2119,264.7939,372.8145,265.0605,372.418L265.0605,372.418L265.0605,372.418z"/>
		<path fill="#FFFFFF" d="M306.6689,348.8301c0.3965,0,0.7939,0,1.1914,0C307.4629,348.6973,307.0654,348.6973,306.6689,348.8301z"
			/>
		<path fill="#FFFFFF" d="M322.7021,349.7578c-0.2656,0-0.5303-0.1328-0.7949-0.1328
			C322.1719,349.7578,322.4365,349.7578,322.7021,349.7578z"/>
		<path fill="#FFFFFF" d="M316.8711,322.4609L316.8711,322.4609l-0.6621,1.5898L316.8711,322.4609L316.8711,322.4609z"/>
		<path fill="#FFFFFF" d="M333.3037,362.082L333.3037,362.082L333.3037,362.082L333.3037,362.082z"/>
		<path fill="#FFFFFF" d="M342.3135,368.3096L342.3135,368.3096L342.3135,368.3096L342.3135,368.3096z"/>
		<path fill="#FFFFFF" d="M337.6738,372.0205c0.1348,0.1318,0.3984,0.2646,0.5322,0.3975l0,0l0,0
			C338.0723,372.2852,337.8086,372.1523,337.6738,372.0205z"/>
		<path fill="#FFFFFF" d="M330.7861,368.5742c0.2637,0.1328,0.5293,0.2656,0.9268,0.3975
			C331.4473,368.8398,331.1826,368.707,330.7861,368.5742z"/>
		<path fill="#FFFFFF" d="M360.7314,382.4893c-0.1318-0.2666-0.1318-0.3984-0.2646-0.6641
			C360.5996,382.0908,360.5996,382.3564,360.7314,382.4893z"/>
		<path fill="#FFFFFF" d="M357.1533,374.0068c0-0.1318-0.1309-0.2646-0.2646-0.5293
			C357.0225,373.6104,357.0225,373.875,357.1533,374.0068z"/>
		<path fill="#FFFFFF" d="M347.6143,361.8164c-0.2656-0.1338-0.3975-0.3975-0.6631-0.5312
			C347.2168,361.5498,347.3486,361.6826,347.6143,361.8164z"/>
		<path fill="#FFFFFF" d="M342.7109,351.7441l16.166-11.2627c-0.0137-0.0137-0.0146-0.0146-0.0225-0.0225L342.7109,351.7441z"/>
		<path fill="#FFFFFF" d="M358.877,340.4814l-10.3359,19.7441l10.4697-19.876l-0.1562,0.1094
			C358.8623,340.4668,358.8633,340.4678,358.877,340.4814z"/>
		<path fill="#FFFFFF" d="M338.6045,355.4561c-0.2666-0.1318-0.5322-0.2646-0.7959-0.3975
			C338.0723,355.3242,338.3379,355.4561,338.6045,355.4561z"/>
		<path fill="#FFFFFF" d="M347.7461,374.5371L347.7461,374.5371L347.7461,374.5371L347.7461,374.5371z"/>
		<path fill="#FFFFFF" d="M344.6982,377.585c0.1338,0.2646,0.3984,0.5293,0.6631,0.6631
			C345.0967,378.1143,344.9639,377.8496,344.6982,377.585z"/>
		<path fill="#FFFFFF" d="M351.4561,386.8613c0.1328,0.2646,0.2666,0.5293,0.3975,0.7939l0,0l0,0
			C351.7227,387.3906,351.5889,387.126,351.4561,386.8613z"/>
		<path fill="#FFFFFF" d="M353.4443,386.8613C353.4443,386.8613,353.3115,386.8613,353.4443,386.8613L353.4443,386.8613
			L353.4443,386.8613z"/>
		<path fill="#FFFFFF" d="M349.999,409.6533C349.8672,409.6533,349.8672,409.6533,349.999,409.6533
			C349.8672,409.6533,349.8672,409.6533,349.999,409.6533C349.8672,409.6533,349.8672,409.6533,349.999,409.6533z"/>
		<path fill="#FFFFFF" d="M347.7461,400.5107c0,0,0,0.1318,0,0.2646C347.7461,400.6416,347.7461,400.6416,347.7461,400.5107z"/>
		<path fill="#FFFFFF" d="M302.5596,407.2676h-0.1328H302.5596C302.6914,407.2676,302.5596,407.2676,302.5596,407.2676z"/>
		<path fill="#FFFFFF" d="M276.0576,407.7988L276.0576,407.7988L276.0576,407.7988L276.0576,407.7988z"/>
		<path fill="#FFFFFF" d="M275.9238,407.9307l0.1338-0.1318C276.0576,407.7988,276.0576,407.7988,275.9238,407.9307
			C275.9238,407.7988,275.9238,407.9307,275.9238,407.9307z"/>
		<path fill="#FFFFFF" d="M314.752,406.6045L314.752,406.6045L314.752,406.6045z"/>
		<path fill="#FFFFFF" d="M322.7021,410.9775c-1.1924-1.1924-2.5186-2.252-4.1084-2.9141
			C320.1836,408.7256,321.5098,409.7852,322.7021,410.9775z"/>
		<path fill="#FFFFFF" d="M314.752,406.6045c1.0586,0.6631,2.7812,0.9287,3.9746,1.459
			C317.5332,407.5332,315.8105,407.2676,314.752,406.6045L314.752,406.6045z"/>
		<path fill="#FFFFFF" d="M302.5596,407.2676C302.5596,407.2676,302.6914,407.2676,302.5596,407.2676
			C302.6914,407.2676,302.5596,407.2676,302.5596,407.2676z"/>
		<path fill="#FFFFFF" d="M275.9238,407.9307c-0.5283,0.2646-0.3955,0.2646,0.2656,0.2646c0-0.1318-0.1318-0.2646-0.1318-0.3965
			L275.9238,407.9307z"/>
		<path fill="#FFFFFF" d="M333.1699,416.8086c1.1924-0.7959,2.2529-1.5908,2.2529-1.7236s0-0.3975,0-0.5303
			C334.0977,414.9521,333.4355,415.748,333.1699,416.8086z"/>
		<path fill="#FFFFFF" d="M276.3232,449.2734C276.3232,449.2734,276.3232,449.4053,276.3232,449.2734
			C276.3232,449.4053,276.3232,449.2734,276.3232,449.2734z"/>
		<path fill="#FFFFFF" d="M276.3232,449.2734L276.3232,449.2734L276.3232,449.2734z"/>
		<path fill="#FFFFFF" d="M276.3232,449.2734L276.3232,449.2734L276.3232,449.2734z"/>
		<path fill="#FFFFFF" d="M306.4023,406.0742c0.9277-0.1328,1.8555-0.1328,2.7822-0.1328c-0.1309,0-0.2646,0-0.2646,0
			C307.9922,405.9414,307.1982,405.9414,306.4023,406.0742z"/>
		<path fill="#FFFFFF" d="M326.9414,412.1689c-0.3975,0.1338-0.7959,0.3984-1.0586,0.6641
			C326.1455,412.7012,326.5439,412.4355,326.9414,412.1689z"/>
		<path fill="#FFFFFF" d="M335.29,414.4238c0.1328,0,0.1328,0,0.2656-0.1338c0,0-0.1328,0-0.3975-0.1328
			C335.29,414.4238,335.29,414.4238,335.29,414.4238z"/>
		<path fill="#FFFFFF" d="M276.3232,449.2734L276.3232,449.2734L276.3232,449.2734L276.3232,449.2734z"/>
		<path fill="#FFFFFF" d="M276.4541,449.4053L276.4541,449.4053L276.4541,449.4053z"/>
		<path fill="#FFFFFF" d="M276.4541,449.4053L276.4541,449.4053C276.3232,449.4053,276.3232,449.2734,276.4541,449.4053
			C276.3232,449.2734,276.3232,449.2734,276.4541,449.4053C276.3232,449.2734,276.3232,449.4053,276.4541,449.4053z"/>
		<path fill="#FFFFFF" d="M276.4541,449.4053L276.4541,449.4053L276.4541,449.4053z"/>
		<circle fill="#FFFFFF" cx="276.3232" cy="449.2734" r="0"/>
		<path fill="#FFFFFF" d="M265.0605,372.418l-15.9023-2.1211L265.0605,372.418z"/>
		<polygon fill="#FFFFFF" points="378.2246,370.8262 356.8887,373.4775 356.8887,373.4775 		"/>
		<polygon fill="#FFFFFF" points="296.7305,368.1768 296.7305,368.1768 294.4785,363.2734 		"/>
		<polygon fill="#FFFFFF" points="248.6284,370.2969 248.6284,370.2969 249.1582,370.2969 		"/>
		<polygon fill="#FFFFFF" points="342.3135,368.3096 342.3135,368.3096 341.1211,369.501 		"/>
		<path fill="#FFFFFF" d="M347.6143,361.8164l0.9268-1.5908L347.6143,361.8164z"/>
		<polygon fill="#FFFFFF" points="344.6982,377.585 344.6982,377.585 345.3613,376.9219 		"/>
		<polygon fill="#FFFFFF" points="351.9873,387.6553 353.3115,386.8613 353.3115,386.8613 		"/>
		<path fill="#FFFFFF" d="M325.8828,412.833l-0.1348,0.1318l0,0L325.8828,412.833L325.8828,412.833z"/>
		<path fill="#FFFFFF" d="M325.748,412.9648c0,0,0.1348,0,0.1348-0.1318C325.8828,412.833,325.748,412.833,325.748,412.9648z"/>
		<path fill="#FFFFFF" d="M325.6172,412.9648C325.6172,412.9648,325.748,412.9648,325.6172,412.9648
			C325.748,412.9648,325.748,412.9648,325.6172,412.9648C325.748,412.9648,325.6172,412.9648,325.6172,412.9648z"/>
		<path fill="#FFFFFF" d="M302.5596,407.2676h-0.1328l0,0H302.5596z"/>
		<path fill="#FFFFFF" d="M354.1055,404.4854c0,0,0.1338-0.1328,0.2666-0.3975l-0.3975-0.2646
			C353.9746,404.0879,354.1055,404.2197,354.1055,404.4854z"/>
		<path fill="#FFFFFF" d="M353.9746,403.8232l0.3975,0.2646c0-0.1338,0-0.1338,0.1309-0.2646
			c-0.2637-0.1338-0.3975-0.2666-0.6611-0.3984C353.8418,403.5566,353.8418,403.6895,353.9746,403.8232z"/>
		<path fill="#FFFFFF" d="M349.8672,409.6533c0.5293,0.2646,0.5293,0.1318,0.1318-0.6631
			C349.999,409.2549,349.8672,409.3877,349.8672,409.6533z"/>
		<path fill="#FFFFFF" d="M340.0605,416.9424c0-0.1338,0-0.1338,0-0.2656h-0.1338
			C339.3975,416.2793,339.3975,416.4121,340.0605,416.9424z"/>
		<g>
			<path fill="#FFFFFF" d="M226.103,532.7275c-3.0576-0.4805-6.0947-1.0205-9.1167-1.6035"/>
			<path fill="#FFFFFF" d="M225.8369,522.4199l-18.022-16.0332c1.0601-3.71,3.0474-10.7344,4.5054-16.9619
				c0.2646-1.3252,0-2.7832-0.9282-3.8438c-0.9272-1.0596-2.2524-1.5908-3.7095-1.4561c-5.4331,0.5283-7.1567-1.458-7.8188-2.1221
				c-3.5776-4.1084-2.5176-13.6484-1.7222-17.3574l3.9751-7.5537c1.9878,1.1924,4.77,2.1191,8.4805,2.1191
				c3.5781,0,8.083-0.9268,13.5161-3.5771c7.686-3.71,13.5161-13.7812,16.8296-23.3232l1.0591,1.9883
				c-0.1318,6.3613-2.3838,11.1328-6.8901,18.9502c-1.1924,2.1201-0.5298,4.6387,1.5903,5.8301
				c0.6616,0.3975,1.457,0.5312,2.1196,0.5312c1.4585,0,2.9155-0.7959,3.7104-2.1211c2.5176-4.3721,4.5054-8.2158,5.9639-11.793
				l1.5894,2.9141c0.2651,0.3984,0.5298,0.7949,0.9277,1.0605l39.2231,34.8506c0.7949,0.6621,1.8545,1.0596,2.7822,1.0596
				c1.1934,0,2.3867-0.5283,3.1816-1.4561c0.1328-0.1348,0.2646-0.2666,0.2646-0.3975c1.1924-0.7969,1.8545-2.1221,1.8545-3.5781
				l-8.3486-7.0234l-32.8613-29.1523l-6.626-11.7939c-0.1328-1.8555-0.3975-3.8428-0.6626-6.0947
				c-0.3979-2.2529-2.3848-3.7109-4.6382-3.5791l-7.5532-27.0312h-0.1328l-4.6377-17.3604l-13.9136-49.957
				c-0.2651-1.0586-1.0596-1.9863-1.9868-2.5176l0.9272-16.8281c0-0.5293,0-1.0605-0.2656-1.5889
				c2.916-1.9883,3.4453-4.7715,3.8433-6.7598c0.1323-0.3965,0.1323-0.9268,0.2651-1.3252
				c1.3252-5.4326,1.1924-23.3213,0.6626-27.561c-0.1328-0.7954-0.1328-1.5913-0.2651-2.3857
				c-0.2646-2.3848-0.3975-5.168-1.7227-7.6851l0.6621-11.3975v-0.1313c4.3735-2.2529,7.2886-5.3003,9.2764-7.9512
				c4.1074-5.8301,4.5049-11.6606,4.5049-12.3237c0-1.1924-0.3975-2.2524-1.1924-3.1797c-0.7954-0.7944-1.9873-1.3247-3.0474-1.3247
				h-55.6548c-1.1929,0-2.2529,0.3975-3.0479,1.3247c-0.7944,0.7949-1.1924,1.8555-1.1924,3.0479
				c0,0.6626,0.1328,6.3608,4.2402,12.3228c1.9873,2.9165,5.3003,6.2285,10.3354,8.481c0,0.1323,0,0.1323,0,0.2651l0.5298,5.6987
				c-2.3853,0.9272-4.2397,2.3843-5.4321,4.1074c-3.4458,4.6382-4.6382,12.5884-3.5781,24.3823
				c0.1323,1.0601,0.1323,2.3853,0.1323,3.8413c0.1328,5.6992,0.3975,12.7217,3.8428,16.6963
				c2.1201,2.5195,5.6978,3.9766,10.9985,4.6387c-0.6626,0.7949-1.0605,1.8555-0.9272,3.0488l1.1919,13.9141
				c0.1328,1.0596,0.6626,2.1201,1.3252,2.7822l-5.0352,68.5059c0,0.665,0.1328,1.46,0.3979,2.1221l8.083,18.0205l0.5298,17.625
				c-1.9878,0.3975-3.4448,2.1201-3.4448,4.2402c0,3.8418,0.6616,7.2881,2.1191,10.2041l-5.6978,10.7334
				c-0.1313,0.2646-0.2646,0.6621-0.397,1.0605c-0.3975,1.7217-3.8433,17.0918,3.5781,25.4414
				c1.7222,1.9873,4.6377,4.2402,9.2754,4.9023c-1.8555,7.0234-3.8428,13.7822-3.8428,13.9141
				c-0.5298,1.5908,0,3.3125,1.1924,4.5039l17.4912,15.5049l-0.6338,4.5967c3.022,0.583,6.0591,1.123,9.1167,1.6035l0.6606-5.0068
				C227.6914,525.998,227.2935,523.7441,225.8369,522.4199z M182.2402,237.521c-0.9277-1.1929-1.458-2.3848-1.855-3.4463h44.9209
				c-0.3975,1.0615-1.0601,2.1216-1.7227,3.3135c-3.9746,5.5649-10.8662,8.3486-20.937,8.2153
				C192.8418,245.3389,186.0825,242.6885,182.2402,237.521z M212.4521,253.29l-0.1318,2.3843
				c-4.1079-1.1919-8.2158-1.1919-12.0586-1.1919h-1.0605c-0.397,0-0.9272,0-1.4565,0c-1.1929,0-2.3867,0.1323-3.4463,0.2646
				l-0.1323-1.3247c2.5171,0.3979,5.1675,0.6626,8.2158,0.7944c0.2646,0,0.5303,0,0.7944,0
				C206.6226,254.085,209.8018,253.8203,212.4521,253.29z M187.2754,300.0664c-1.458-1.7236-1.5903-7.8184-1.7227-11.3955
				c0-1.5908-0.1328-3.0479-0.2651-4.3726c-1.1929-12.8545,0.9277-17.0952,1.855-18.4204
				c0.3979-0.5293,2.5181-2.5176,10.8662-2.7822c0.2651,0,0.5298,0,0.7954,0h1.3247c4.1079,0,7.8184,0.1318,11.1309,1.3252
				c1.8555,0.7954,2.1196,1.457,2.5181,5.9629c0.1323,0.7949,0.1323,1.7231,0.2646,2.6499
				c0.5303,4.2397,0.3979,20.5386-0.5298,24.3823c-0.1333,0.6631-0.2651,1.1924-0.3975,1.7217
				c-0.1318,0.3984-0.1318,0.9287-0.2651,1.3252c-1.8555,0.5322-8.7456,1.5918-15.2388,1.5918
				C190.7202,301.9219,187.8052,300.7285,187.2754,300.0664z M209.4048,309.7393l-0.6631,12.4551l-8.48,0.2666l-0.9282-9.9385
				c0-0.6631-0.2642-1.3252-0.6621-1.9883C202.2495,310.5342,206.0913,310.1367,209.4048,309.7393z M196.9487,398.2549
				l4.9023-67.0488l8.7461-0.2656l24.5146,88.6514c0.1323,0.3965,0,1.1924-0.1323,1.8555
				c-0.1328,0.6611-0.2646,1.4561-0.3975,2.1191c-0.3979,1.459-0.7954,2.915-1.1924,4.374
				c-0.2656,0.7939-0.5308,1.4551-0.7959,2.251c-0.7944,2.2529-1.7217,4.375-2.7827,6.3613
				c-0.6626,1.3252-1.457,2.6504-2.1196,3.8428c-0.1328,0.2646-0.3979,0.6631-0.5298,0.9268
				c-0.3979,0.5303-0.7954,1.1934-1.1929,1.7227c-0.2646,0.2666-0.3975,0.5293-0.6626,0.7959
				c-0.6621,0.7949-1.1929,1.457-1.8555,2.1201c-1.0596,1.0596-2.1201,1.8545-3.3125,2.3848
				c-0.7954,0.3975-1.458,0.6631-2.2524,0.9277c-3.9756,1.5898-7.2886,2.1211-9.8057,1.459
				c-0.6626-0.1348-1.3252-0.3984-1.8555-0.7959l-0.1333-0.1338c0.1333-0.2637,0.1333-0.6621,0.1333-0.9277
				c0-0.1318,0-0.2646,0-0.2646l-0.9277-30.874c0-0.5303-0.1323-1.0596-0.3975-1.5918L196.9487,398.2549z"/>
		</g>
		<path fill="#FFFFFF" d="M376.8984,508.1094l-20.2734-9.9395l-9.6738-4.6387l-11.3955-5.5654l-2.7832-20.0078
			c-0.2637-1.5918-1.3252-2.916-2.6504-3.4463c3.0479-2.7822,5.5664-6.2275,7.4209-10.0703
			c3.7109,1.458,7.9502,0.7959,11.2627-1.3242c1.9883-1.3252,3.3135-3.0488,4.373-5.0352c0.6631-1.1934,1.1934-2.1211,2.252-3.0488
			c1.0605-0.7959,1.9883-1.5898,2.917-2.6504c1.4561-1.8555,2.3838-4.3721,2.252-6.7578c0-1.459-0.6611-2.6523-0.9268-4.1084
			c-0.3975-1.458,0.2656-1.9873,0.9268-3.3125c1.9893-3.5771,2.3857-7.5518,1.5908-11.3955
			c0.1328-0.1318,0.1328-0.3965,0.2646-0.5293c2.3857-8.3486,1.7227-16.8291,0.7959-25.3105c0-0.1328,0-0.2646,0-0.3965
			l34.1875-22.5273c1.458-0.9277,2.252-2.6514,1.8555-4.373c-0.3975-2.1221-2.3848-3.5791-4.5059-3.3135l-39.6211,4.9023
			l18.9492-36.041c0.7939-1.459,0.6621-3.4463-0.3984-4.6396c-1.457-1.7217-3.8418-1.9873-5.5635-0.7939l-36.8389,25.8389
			l-9.1436-42.4023c-0.3965-1.7246-1.8555-3.0488-3.71-3.1816c-1.8555-0.1318-3.5781,0.9277-4.1074,2.6504l-15.9014,41.2129
			l-2.6504,0.6602L260.29,321.5322c-1.458-1.0586-3.4463-1.1924-4.9043,0c-1.457,1.0605-1.9873,3.0479-1.457,4.7715l14.3115,38.1631
			l-31.4062-4.1084h-0.2646c-5.3003,2.1191-2.7827,6.3613-1.4575,8.8789l1.4575,1.3242l21.7319,16.8291
			c-3.7104,4.6377-4.7705,10.7344-3.0479,16.2988v0.1338c0.3975,1.4561,0.9277,2.7812,1.061,4.3721
			c0.397,2.916-0.1333,5.8301-1.061,8.6133c-1.0605,3.1797-1.457,5.6973-0.1323,8.8779c0.9282,2.2539,2.1206,4.6377,4.1074,6.0947
			c0.9277,0.6631,2.3857,1.459,3.5781,1.459c0,0.3965,0,0.6631,0,0.6631c0,5.0342,1.459,9.6709,4.9033,13.3828
			c1.5908,1.7227,3.8428,3.4463,6.0957,4.2393c1.1924,0.3984,2.5176,0.3984,3.709-0.3975c0,0,0,0,0.1338,0
			c0.1328,0.1328,0.1328,0.1328,0.2637,0.2666c0.3994,0.3975,0.9277,0.7959,1.5908,1.1934
			c5.4326,12.1885,16.5654,20.5381,29.5508,20.5381c5.5654,0,10.7324-1.5898,15.3711-4.2412v0.1328l3.0469,22.2627
			c0.1328,1.458,1.0615,2.6494,2.3857,3.3115l41.9902,20.5322c2.6289-1.1064,5.2324-2.2607,7.8184-3.4473l-0.9131-1.7129
			C378.3564,509.1689,377.6953,508.5068,376.8984,508.1094z M378.2236,370.6943h0.1328l-17.625,11.7949
			c-0.1318-0.2666-0.1318-0.5312-0.2646-0.6641c0-0.1318-0.1318-0.3975-0.1318-0.5293c-0.1328-0.2656-0.1328-0.5303-0.2656-0.6631
			c0-0.1328-0.1309-0.2656-0.1309-0.3984c-0.1348-0.2646-0.2656-0.5283-0.2656-0.7949c0-0.1328-0.1328-0.2646-0.1328-0.3975
			c-0.1338-0.3975-0.2656-0.7939-0.3975-1.1924c0-0.1318,0-0.1318-0.1338-0.2646c-0.1318-0.2656-0.2637-0.6631-0.3965-0.9277
			c0-0.1328-0.1328-0.2646-0.1328-0.3965c-0.1318-0.2656-0.2646-0.5312-0.3994-0.6631c-0.1299-0.1328-0.1299-0.2656-0.2637-0.3975
			c-0.1328-0.2656-0.2637-0.3984-0.2637-0.6631c-0.1338-0.1318-0.1338-0.2646-0.2646-0.5293
			c-0.1348-0.2656-0.2656-0.3975-0.2656-0.6621L378.2236,370.6943z M356.4912,394.6787c0.3975,3.9756,0.6621,8.084,0.3975,12.1914
			c-0.2646-0.6631-0.6621-1.3252-1.1924-1.9883l-0.1318-0.1318c0-2.3857-0.1338-7.1562-0.5303-9.2754L356.4912,394.6787z
			 M342.5771,351.7441l16.2998-11.3945l-10.4668,19.876l-0.9277,1.7236c-0.2656-0.1328-0.3984-0.3994-0.6631-0.5303
			c-0.1328-0.1338-0.2666-0.2637-0.5303-0.3975c-0.2646-0.1338-0.3984-0.3984-0.6631-0.5303
			c-0.1328-0.1328-0.2646-0.2656-0.3975-0.3984c-0.2646-0.2637-0.5303-0.3975-0.7939-0.6611
			c-0.1338-0.1338-0.2666-0.1338-0.3984-0.2656c-0.3975-0.2666-0.7959-0.5293-1.1924-0.9277l-0.1328-0.1328
			c-0.3975-0.2646-0.6631-0.5303-1.0605-0.6621c-0.1318-0.1328-0.2646-0.1328-0.3965-0.2646
			c-0.2656-0.1328-0.5303-0.3984-0.7949-0.5303c-0.1338-0.1318-0.3975-0.1318-0.5322-0.2656
			c-0.2637-0.1318-0.5293-0.2637-0.7939-0.5293c-0.1328-0.1318-0.3975-0.1318-0.5283-0.2656
			c-0.2666-0.1318-0.5322-0.3965-0.7959-0.5293L342.5771,351.7441z M353.4443,386.8613l-1.457,0.7939
			c-0.1338-0.2646-0.2646-0.5293-0.3984-0.7939c-0.1328-0.1338-0.2637-0.3975-0.2637-0.6631
			c-0.1338-0.2646-0.2646-0.5303-0.3984-0.7949c-0.1328-0.1318-0.2646-0.3975-0.2646-0.5293
			c-0.1328-0.2656-0.3975-0.5303-0.5293-0.9277c-0.1338-0.1328-0.1338-0.2656-0.2656-0.3975
			c-0.2656-0.3984-0.5293-0.7959-0.7949-1.1924c0,0,0-0.1338-0.1328-0.1338c-0.2646-0.3975-0.6641-0.7949-0.9277-1.1924
			c-0.1338-0.1318-0.2656-0.2646-0.2656-0.3975c-0.2637-0.2656-0.3975-0.5303-0.6621-0.7959
			c-0.1328-0.1309-0.2646-0.2646-0.3975-0.3975c-0.2646-0.2646-0.3975-0.5293-0.6621-0.6621
			c-0.1338-0.1328-0.2646-0.2656-0.3984-0.5293c-0.2646-0.2656-0.3975-0.3984-0.6621-0.6631l0.5293-0.5293l2.3848-2.3857
			c0.1338,0.2646,0.3975,0.5303,0.5322,0.7949c0.1309,0.2646,0.2646,0.3975,0.3955,0.6621
			c0.1338,0.2656,0.3975,0.5303,0.5322,0.7949c0.1309,0.2656,0.2637,0.3975,0.3975,0.6631
			c0.1318,0.2656,0.2637,0.5293,0.5293,0.9268c0.1318,0.1328,0.2646,0.3984,0.2646,0.5303
			c0.1328,0.3975,0.3975,0.6641,0.5312,1.0605c0.1309,0.1318,0.1309,0.2656,0.2637,0.3975
			c0.2646,0.5303,0.3984,1.0625,0.6631,1.5908c0.2646,0.5293,0.3975,1.0596,0.5293,1.5898c0,0.1328,0.1328,0.2656,0.1328,0.3984
			c0.1309,0.3975,0.2646,0.7949,0.3975,1.1924c0,0.2637,0.1318,0.3965,0.1318,0.6621
			C353.1787,386.1982,353.3115,386.4639,353.4443,386.8613z M332.1113,365.1289l1.1924-2.916
			c0.2646,0.1338,0.3965,0.2646,0.6611,0.3965c0.1328,0.1348,0.3975,0.1348,0.5312,0.2666
			c0.2646,0.1328,0.3975,0.2656,0.6621,0.3975c0.1318,0.1328,0.3975,0.1328,0.5303,0.2656
			c0.2646,0.1328,0.5303,0.2646,0.7939,0.5303c0.1328,0.1309,0.2646,0.1309,0.3984,0.2646
			c0.3955,0.2646,0.6621,0.3984,1.0586,0.6621c0,0,0.1328,0,0.1328,0.1328c0.3975,0.2646,0.6631,0.5312,1.0605,0.7949
			c0.1328,0.1338,0.2646,0.1338,0.3994,0.2656c0.2637,0.1328,0.5283,0.3975,0.6611,0.5303
			c0.1318,0.1318,0.2656,0.2646,0.3965,0.3975c0.2666,0.1328,0.3984,0.2656,0.6621,0.5303
			c0.1338,0.1318,0.2666,0.2637,0.3984,0.3975c0.1328,0.1318,0.3975,0.2646,0.5312,0.5293l-1.1934,1.1934l-2.916,2.915
			c-0.1328-0.1318-0.3984-0.2646-0.5293-0.3975c-0.1328,0-0.1328-0.1328-0.2666-0.1328c-0.1309,0-0.2637-0.1318-0.2637-0.1318
			c-0.3975-0.2646-0.7949-0.5312-1.3242-0.7969c-0.2656-0.1318-0.3984-0.2627-0.6641-0.3975
			c-0.2646-0.1318-0.6621-0.3975-1.0596-0.5293c-0.2646-0.1328-0.5293-0.2646-0.6611-0.3975
			c-0.2656-0.1318-0.6641-0.2646-0.9297-0.5293c-0.2627-0.1328-0.5283-0.2656-0.793-0.3984
			c-0.2656-0.1318-0.6641-0.2646-0.9277-0.3975L332.1113,365.1289z M324.1592,358.6367c0.2656,0,0.3975,0.1309,0.6621,0.1309
			c0.2656,0.1318,0.5303,0.1318,0.7959,0.2656l-0.9277,2.252l-1.8555,4.7725c-0.2646,0-0.5293-0.1338-0.7949-0.1338
			c-0.1318,0-0.2637,0-0.3984-0.1328c-0.2646,0-0.5303-0.1309-0.793-0.1309c-0.1338,0-0.2656,0-0.4004,0
			c-0.2637,0-0.5293-0.1328-0.9268-0.1328c-0.1318,0-0.1318,0-0.2646,0c-0.3975,0-0.7949-0.1338-1.1924-0.1338c0,0,0,0-0.1318,0
			c-0.3984,0-0.6631-0.1328-1.0605-0.1328c-0.1318,0-0.2646,0-0.3965,0c-0.2656,0-0.5312,0-0.7949,0c-0.1328,0-0.2656,0-0.3975,0
			c-0.2656,0-0.5303,0-0.6641,0c-0.1318,0-0.3975,0-0.5293,0c-0.2646,0-0.3975,0-0.6621,0l-0.6631-8.2148
			c0.2656,0,0.5303,0,0.9277,0c0.2646,0,0.5293,0,0.7949,0s0.6621,0,0.9277,0.1328c0.2656,0,0.3975,0,0.6621,0
			c0.3984,0,0.7949,0.1318,1.1934,0.1318c0.1318,0,0.2637,0,0.3975,0c1.0596,0.1328,2.1191,0.2646,3.1807,0.5303
			c0.1318,0,0.2627,0,0.3955,0.1318c0.3975,0.1328,0.7959,0.1328,1.0615,0.2656c0.1318,0,0.3975,0.1328,0.5293,0.1328
			C323.4961,358.5039,323.8945,358.5039,324.1592,358.6367z M316.209,324.0508l0.6621-1.7236v0.1338l0.2646,1.3252l5.5664,25.9717
			c-0.2656,0-0.5303-0.1328-0.7949-0.1328c-0.2666,0-0.3975-0.1328-0.6641-0.1328c-0.2637,0-0.5293-0.1318-0.7959-0.1318
			c-0.2637,0-0.3965-0.1328-0.6611-0.1328c-0.2656,0-0.5303-0.1328-0.7949-0.1328s-0.3975,0-0.6621-0.1318
			c-0.2656,0-0.6621-0.1328-0.9277-0.1328s-0.3965,0-0.6621-0.1328c-0.2646,0-0.6631,0-0.9287-0.1328c-0.1309,0-0.3965,0-0.5283,0
			c-0.3984,0-0.6641,0-1.0615,0c-0.1318,0-0.2646,0-0.5293,0c-0.3975,0-0.7969,0-1.1914,0c-0.1338,0-0.2676,0-0.2676,0
			c-0.5303,0-1.0586,0-1.5898,0c-0.6621,0-1.3262,0-1.8545,0c-0.2656,0-0.3975,0-0.6631,0
			c-0.6621,0.1328-1.0596,0.1328-1.4561,0.1328L316.209,324.0508z M293.5488,359.6953c0.2646-0.1318,0.3965-0.1318,0.6631-0.2637
			c0.2666-0.1338,0.5312-0.1338,0.7949-0.2656c0.2656,0,0.3984-0.1328,0.6631-0.2666c0.2656-0.1318,0.6631-0.1318,0.9268-0.2637
			c0.1338,0,0.3984-0.1318,0.5312-0.1318c0.5293-0.1328,0.9277-0.2656,1.457-0.3984s1.0605-0.2646,1.458-0.2646
			c0.1318,0,0.2637,0,0.2637,0c0.3984-0.1338,0.7959-0.1338,1.1934-0.2656c0.1318,0,0.3965,0,0.5293-0.1318
			c0.3975,0,0.6621-0.1328,1.0605-0.1328c0.1328,0,0.3984,0,0.5303-0.1318c0.2646,0,0.6631-0.1328,0.9277-0.1328l0.6621,8.6143
			c-0.5293,0.1309-1.0586,0.1309-1.4561,0.2637c-0.2656,0-0.5312,0.1328-0.7969,0.1328c-0.7939,0.1309-1.457,0.3984-2.252,0.5303
			h-0.1328c-0.6631,0.1328-1.3252,0.3975-1.9883,0.6631c-0.2646,0.1328-0.3965,0.1328-0.6621,0.2637
			c-0.5293,0.1338-0.9268,0.2656-1.457,0.5312l-2.2529-4.9033l-1.3262-3.1807C293.1514,359.8291,293.417,359.8291,293.5488,359.6953
			z M266.7812,336.7715l11.1309,8.6123l10.0713,7.6865c-0.2646,0.1338-0.5293,0.2666-0.9268,0.3984
			c-0.2656,0.1309-0.5293,0.2646-0.7949,0.3975c-0.2666,0.1318-0.5303,0.2656-0.9277,0.3975
			c-0.2666,0.1328-0.5303,0.2656-0.7959,0.3975c-0.2646,0.1318-0.6621,0.2646-0.9268,0.5303
			c-0.2656,0.1328-0.5312,0.2646-0.6621,0.3965c-0.3984,0.2656-0.7959,0.3975-1.0605,0.6631
			c-0.1328,0.1318-0.2646,0.1318-0.3984,0.2656c-0.5303,0.2637-1.0596,0.6621-1.5898,0.9268
			c-0.1328,0.1318-0.2656,0.2637-0.5293,0.2637c-0.3975,0.2656-0.6641,0.3984-1.0615,0.6641
			c-0.1328,0.1328-0.3975,0.2646-0.5283,0.3965c-0.2666,0.2656-0.6641,0.3984-0.9277,0.6641
			c-0.1328,0.1318-0.3994,0.2637-0.5303,0.3965c-0.2656,0.2646-0.5312,0.3975-0.7949,0.6631L266.7812,336.7715z M289.3076,371.8877
			c-0.3965,0.2646-0.6621,0.3975-1.0586,0.6631c-0.1318,0.1328-0.3975,0.2637-0.5303,0.3975
			c-0.5293,0.3975-0.9277,0.6621-1.457,1.0586c-0.5303,0.3984-0.9277,0.7949-1.458,1.1924
			c-0.1328,0.1328-0.2637,0.2656-0.3975,0.3984c-0.2656,0.2646-0.6631,0.5293-0.9287,0.7949l-6.8896-5.4316
			c0.1328-0.1348,0.3955-0.3994,0.5293-0.5322c0.1318-0.1318,0.2656-0.2646,0.3975-0.5293
			c0.2666-0.2646,0.3975-0.3984,0.6621-0.6621c0.1328-0.1328,0.2656-0.2656,0.3994-0.3975
			c0.2637-0.2656,0.6631-0.6631,0.9268-0.9287c0.1318-0.1318,0.2646-0.2637,0.3975-0.2637
			c0.2646-0.2646,0.5303-0.3975,0.7959-0.6631c0.1318-0.1328,0.2637-0.2646,0.5303-0.3975
			c0.2637-0.1318,0.3975-0.3975,0.6621-0.5293c0.1328-0.1338,0.3975-0.2666,0.5293-0.3975
			c0.2656-0.1328,0.3984-0.2666,0.6621-0.5312c0.1338-0.1328,0.3975-0.2656,0.5312-0.3965
			c0.2646-0.1338,0.3975-0.2656,0.6621-0.3984c0.1328-0.1338,0.3975-0.2646,0.5303-0.3975
			c0.2637-0.1318,0.3965-0.2646,0.6631-0.3975L289.3076,371.8877z M268.3721,385.1387c0-0.1328,0.1318-0.2646,0.1318-0.3984
			c0.1338-0.2637,0.1338-0.5283,0.2656-0.7939c0-0.1328,0-0.1328,0.1318-0.2656c0.2656-0.6621,0.5312-1.458,0.7949-2.1182
			c0-0.1348,0.1328-0.1348,0.1328-0.2666c0.1328-0.2656,0.2666-0.5303,0.3984-0.7959c0-0.1328,0.1328-0.2666,0.1328-0.3975
			c0.1328-0.2656,0.2656-0.3965,0.2656-0.6631c0-0.1328,0.1309-0.2646,0.2637-0.3975c0.1328-0.2646,0.2646-0.3975,0.2646-0.6621
			c0.1338-0.1318,0.1338-0.2656,0.2666-0.3975c0.1318-0.1328,0.1318-0.3975,0.2637-0.5303l6.2275,4.9043
			c-0.1309,0.1328-0.2637,0.3965-0.3975,0.5303c-0.1318,0.1318-0.1318,0.2637-0.2656,0.3975
			c-0.1318,0.1318-0.2637,0.3965-0.3955,0.5293c-0.1328,0.1328-0.1328,0.2656-0.2656,0.3975
			c-0.1338,0.2656-0.2646,0.5293-0.3984,0.7949c0,0.1328-0.1318,0.1328-0.1318,0.2656c-0.1318,0.2637-0.3975,0.6621-0.5293,0.9268
			c0,0.1328-0.1328,0.1328-0.1328,0.2656c-0.1328,0.2646-0.2666,0.3975-0.3975,0.6621c0,0.1318-0.1328,0.2646-0.1328,0.3975
			c-0.1309,0.2656-0.2646,0.3975-0.2646,0.6621c0,0.1328-0.1328,0.2646-0.1328,0.3984c-0.1328,0.2637-0.1328,0.3965-0.2646,0.6631
			c0,0.1309-0.1338,0.2646-0.1338,0.3965c-0.1318,0.2656-0.1318,0.3975-0.2637,0.6631l-2.5176-1.9883l-3.1816-2.5176
			C268.2402,385.5352,268.2402,385.4033,268.3721,385.1387z M248.6284,370.2969h0.6621l15.9019,1.9883
			c-0.2656,0.3975-0.3984,0.7949-0.6641,1.1924c-0.1328,0.2646-0.2646,0.5293-0.3955,0.7949
			c-0.2656,0.5293-0.5312,1.0596-0.7959,1.5898c0,0.1328-0.1328,0.2646-0.1328,0.2646c-0.2646,0.6621-0.6631,1.3252-0.9268,1.9873
			c-0.1338,0.2656-0.1338,0.3975-0.2656,0.6631c-0.1318,0.5293-0.3975,0.9287-0.5303,1.457L248.6284,370.2969z M276.0576,444.6357
			c0,0-0.1338,0-0.2656,0C275.9238,444.5029,276.0576,444.5029,276.0576,444.6357c0.0664,0,0.0986,0,0.0986,0
			S276.124,444.6357,276.0576,444.6357z M275.1289,444.1045c-0.2637-0.1309-0.5283-0.2637-0.7939-0.5303
			c-0.5293-0.3965-1.0605-1.0586-1.5898-1.5889c-1.0605-1.3252-1.8555-2.915-2.252-4.5039
			c-0.7969-3.3154,0.5293-7.0244-2.1211-9.6748c-0.6621-0.6621-1.457-1.1924-2.3848-1.5898c-0.6611-0.1318-1.8545,0-2.3857-0.2637
			c-0.7949-0.3975-1.9873-3.4473-2.1201-4.2422c-0.1318-1.7227,1.1924-3.8418,1.5898-5.5664
			c0.5303-2.252,0.7959-4.7695,0.6631-7.1543c-0.1328-2.1201-2.7822-9.4082-3.5781-11.7939
			c0.2646-2.2529,1.1934-4.5049,2.6504-6.3604l6.4922,5.0352c-0.5293,2.3838-0.7949,4.7705-0.9268,7.1562
			c-0.2656,3.4453-0.2656,7.4209,2.3848,10.0703c1.0596,0.9277,2.1211,1.5898,3.3125,1.8545
			c0.2656,0.9297,0.5312,1.8564,0.7959,2.6514c0.6631,1.5898,1.5889,2.1211,1.1924,3.8438
			c-0.5293,1.7217-0.9287,3.4434-0.7949,5.2998c0.1328,1.9873,0.6611,3.9736,0.5293,5.9629c0,0.6611,0,1.1934,0.2656,1.5889
			c0,0.665,0,1.1943,0,1.8574c0,2.252,0.1318,4.5039,0.5303,6.7559C276.1895,443.3115,275.6602,443.709,275.1289,444.1045z
			 M279.2393,405.2793c-0.9297,0.6621-1.7246,1.3252-2.6514,1.9883c-0.1338,0.1328-0.3984,0.2656-0.6641,0.5312
			c0,0.1318,0.1338,0.2646,0.1338,0.3965c-0.6621,0.1328-0.7949,0-0.2656-0.2646c0,0,0.1318,0,0.1318-0.1318
			c-1.0586-3.1816,0-7.6855,0.7969-10.8682c0.2627-1.0596,0.5283-2.1191,0.7939-3.0459
			c5.5654-12.7217,19.3486-21.8643,35.5146-21.8643c13.9121,0,26.1035,6.7568,32.7305,16.6963
			c-0.7959,1.0605-1.3252,2.5176-1.3252,3.9746c0,0.7949,0.1309,1.5898,0.3975,2.3857c0.1318,0.3965,0.2646,0.6611,0.3965,1.0586
			c0,0.1318,0,0.3984,0.1328,0.5303c0.2646,0.9277,0.6631,1.7227,1.0605,2.5186c0.1309,0.2656,0.9268,1.7227,1.0605,1.457
			c0-0.1309,0-0.1309,0-0.2646c0,0.1338,0,0.1338,0,0.2646c0,0.7959-0.7959,1.7227-0.9297,2.5186
			c-0.2646,1.0596-0.2646,2.1191,0.1338,3.1797c0.2646,0.7949,0.7959,1.5908,1.3252,2.1211
			c0.3984,0.2646,0.7939,0.6631,1.1914,0.9268c0,0,0.1348,0.1328,0.2656,0.1328c0.0664,0.0654,0.0996,0.0986,0.0996,0.0986
			s-0.0332-0.0332-0.0996-0.0986c-0.2656,1.3242-1.0586,2.5176-1.1934,3.71c-0.2637,1.5889,0.3994,3.0488,0.5303,4.373
			c-0.7939,0-1.7217,0-2.5166,0c-0.9277,0.1328-3.3145,0.2656-3.9756,0.7939c-0.2656-0.2637-0.5303-0.6611-0.7949-0.7939
			c-0.3975-0.3975-0.7949-0.6611-1.3252-0.9268c-0.1045-0.1064-0.4512-0.208-0.5303-0.2471c0,0.1064,0,0.1211,0,0.2471
			c-0.6631-0.5322-0.6631-0.6641-0.1309-0.2646h0.1309c-0.5303-1.7246-2.7822-2.6514-4.5049-2.2549
			c-0.1338,0-0.1338,0-0.2646,0.1328v-0.1328c-0.3975-2.1191-2.7822-3.9746-6.3623-3.3125c0,0-1.0596,0.6631-1.8545,1.1934
			c-0.3965,0.2646-0.7939,0.5293-1.0596,0.6631c-0.1328,0-0.1328,0.1318-0.2656,0.1318h-0.1328
			c-0.1318,0.1318-0.2646,0.1318-0.5303,0c-0.7939-0.2656-1.7217-1.458-2.252-1.9883l-0.1318-0.1318
			c-1.1943-1.1924-2.5186-2.252-4.1074-2.9141c-1.1934-0.5312-2.915-0.7969-3.9766-1.459c-0.1318,0-0.1318-0.1328-0.2646-0.1328
			c-0.9268-0.7949-1.1924-2.1191-2.1211-3.0469c-1.3262-1.3252-2.915-1.458-4.6367-1.5908
			c-0.9277-0.1318-0.1328,0.2656-1.3252-0.5293c-0.6631-0.3984-1.3252-0.7949-2.1211-0.9268c-0.2637,0-0.5293-0.1338-0.6621-0.1338
			c-1.7227-0.2646-3.4443,0.2656-5.0342,0.9277c-0.5312,0.2656-1.1924,0.6621-1.7227,1.0596
			c-0.7949,0.5312-1.5898,1.0605-2.3877,1.1934c0,0,0,0-0.1318,0c-1.7227,0.2646-3.71-0.6621-5.4326-0.9277
			c-1.7227-0.1318-3.4453,0-5.167,0.5293C282.2861,403.5566,280.6963,404.3525,279.2393,405.2793z M349.2031,419.1934
			c0.0371-0.1104,0.04-0.2207,0.0557-0.3311c0.0117-0.2871-0.0557-0.5732-0.0557-0.8604c0.0977,0.2871,0.0996,0.5732,0.0557,0.8604
			C349.2549,418.9727,349.2402,419.083,349.2031,419.1934z M307.7275,405.9414h-0.1338c-0.5283,0-0.9248,0.1328-1.3232,0.1328
			c0.5303-0.1328,0.9277-0.1328,1.3232-0.1328H307.7275z M309.0537,466.8975c-9.0107,0-16.8301-5.168-21.7324-12.9854
			c-1.3262-2.1201-2.3857-4.6387-3.3125-7.1562c-1.0596-3.3125-1.5908-6.7588-1.5908-10.4678c0-0.5293,0-0.9277,0-1.457
			c0-1.5908,0.2656-3.1826,0.5312-4.6396l0.6621-10.5996c-0.1338-1.7227-1.0605-2.7832-1.7227-4.2412
			c-0.1328-0.3984-0.2646-0.6631-0.3984-1.0605c-0.1318-0.3975-0.2637-0.7949-0.3975-1.1924
			c1.5908-1.1924,3.1807-2.5176,4.9023-3.1797c0.7959-0.2646,1.5908-0.3975,2.3857-0.2646c2.3857,0.2646,4.373,0.7949,6.626,0.7949
			c1.1934,0,2.3857-0.3975,3.71-1.0605c1.0605-0.5303,2.3848-1.9873,3.5781-2.1201c0.0654,0,0.0986,0,0.1318,0s0.0664,0,0.1328,0
			c0.2646,0.1328,0.6631,0.5312,0.7969,0.6631c0.7949,0.3975,1.457,0.7949,2.3838,0.9268c0.3975,0.1328,0.9287,0.1328,1.3252,0.1328
			c0,0,0.1328,0,0.2646,0c0.1328,0.2646,0.1328,0.3975,0.2656,0.5303c0.7949,1.3252,1.8555,2.3848,3.1807,3.1807
			c1.4561,0.7939,3.0479,1.1914,4.5059,1.7227c1.3242,0.5283,2.251,1.7207,3.3115,2.6504c2.7822,2.6504,6.7578,4.373,10.3369,2.3848
			c2.915,1.457,6.3594,2.7822,7.2881,3.4443c1.0576,0.6631,1.7207,1.9893,3.0469,2.5186c0.5303,0.2646,0.9277,0.3965,1.458,0.5312
			c1.3242,0.2637,2.6494,0.1318,4.1084-0.1348c-0.2666,1.46-0.2666,2.916-0.2666,4.373c0,2.5186,0.3984,5.4336-1.3252,7.4209
			c-0.3965,0.3984-0.7939,0.7959-1.1924,1.0605c-0.1318,2.7822-0.5293,5.4316-1.3242,8.083
			c3.4443-0.3965,6.625-2.3848,8.7451-5.3008c3.1807-4.3721,1.8564-9.2754,2.5186-14.1768c0.2646-1.8564,0.7949-2.7852,2.252-3.8447
			c1.8545-1.5898,2.5166-3.3125,2.3848-5.4316l0.1318,0.1318c0.3975,2.6504,0.1328,5.2998-1.457,8.083
			c-1.0596,1.7236-1.7227,3.4453-1.457,5.4316c0.2637,2.2549,1.7227,3.9766,0.7959,6.2295
			c-0.7959,1.8555-2.6504,2.6494-3.9756,3.9746c-1.459,1.459-2.1211,3.4453-3.3135,5.0361
			c-1.7227,2.252-4.9023,3.4453-7.5527,2.3848c0.2646-0.7959,0.5293-1.7227,0.7939-2.5176c0.6641-2.5186,1.0605-5.3008,1.3262-8.083
			c-1.1924,0.7949-2.7832,0.9268-4.2422,0.7949c-0.793-0.1328-1.5889,0.2656-2.251,0.7949
			c-0.1328,1.5898-0.5293,3.1807-0.9268,4.7705C331.1826,457.6221,321.1104,466.8975,309.0537,466.8975z"/>
		<path fill="#FFFFFF" d="M349.2031,418.002c0,0.2871,0.0674,0.5732,0.0557,0.8604
			C349.3027,418.5752,349.3008,418.2891,349.2031,418.002z"/>
		<path fill="#FFFFFF" d="M339.6631,416.4297c0-0.0078,0-0.0088,0-0.0176C339.6357,416.4121,339.6416,416.4189,339.6631,416.4297z"
			/>
		<path fill="#FFFFFF" d="M307.5938,405.9414c-0.3955,0-0.793,0-1.3232,0.1328
			C306.6689,406.0742,307.0654,405.9414,307.5938,405.9414z"/>
	</g>
	<path fill="#FFFFFF" d="M258.772,535.8193c-1.4565-0.0498-2.9141-0.0938-4.3643-0.166"/>
</g>
</svg>
